<?xml version="1.0" encoding="utf-8" standalone="no"?>
<!DOCTYPE svg PUBLIC "-//W3C//DTD SVG 1.1//EN"
  "http://www.w3.org/Graphics/SVG/1.1/DTD/svg11.dtd">
<svg xmlns:xlink="http://www.w3.org/1999/xlink" width="839.712656pt" height="480.014766pt" viewBox="0 0 839.712656 480.014766" xmlns="http://www.w3.org/2000/svg" version="1.1">
 <metadata>
  <rdf:RDF xmlns:dc="http://purl.org/dc/elements/1.1/" xmlns:cc="http://creativecommons.org/ns#" xmlns:rdf="http://www.w3.org/1999/02/22-rdf-syntax-ns#">
   <cc:Work>
    <dc:type rdf:resource="http://purl.org/dc/dcmitype/StillImage"/>
    <dc:date>2026-05-28T16:25:12.158898</dc:date>
    <dc:format>image/svg+xml</dc:format>
    <dc:creator>
     <cc:Agent>
      <dc:title>Matplotlib v3.9.2, https://matplotlib.org/</dc:title>
     </cc:Agent>
    </dc:creator>
   </cc:Work>
  </rdf:RDF>
 </metadata>
 <defs>
  <style type="text/css">*{stroke-linejoin: round; stroke-linecap: butt}</style>
 </defs>
 <g id="figure_1">
  <g id="patch_1">
   <path d="M 0 480.014766 
L 839.712656 480.014766 
L 839.712656 0 
L 0 0 
z
" style="fill: #ffffff"/>
  </g>
  <g id="axes_1">
   <g id="patch_2">
    <path d="M 58.512656 424.763437 
L 832.512656 424.763437 
L 832.512656 26.303437 
L 58.512656 26.303437 
z
" style="fill: #ffffff"/>
   </g>
   <g id="matplotlib.axis_1">
    <g id="xtick_1">
     <g id="text_1">
      <!-- 6A -->
      <g style="fill: #262626" transform="translate(145.171875 449.073828) scale(0.165 -0.165)">
       <defs>
        <path id="ArialMT-36" d="M 3184 3459 
L 2625 3416 
Q 2550 3747 2413 3897 
Q 2184 4138 1850 4138 
Q 1581 4138 1378 3988 
Q 1113 3794 959 3422 
Q 806 3050 800 2363 
Q 1003 2672 1297 2822 
Q 1591 2972 1913 2972 
Q 2475 2972 2870 2558 
Q 3266 2144 3266 1488 
Q 3266 1056 3080 686 
Q 2894 316 2569 119 
Q 2244 -78 1831 -78 
Q 1128 -78 684 439 
Q 241 956 241 2144 
Q 241 3472 731 4075 
Q 1159 4600 1884 4600 
Q 2425 4600 2770 4297 
Q 3116 3994 3184 3459 
z
M 888 1484 
Q 888 1194 1011 928 
Q 1134 663 1356 523 
Q 1578 384 1822 384 
Q 2178 384 2434 671 
Q 2691 959 2691 1453 
Q 2691 1928 2437 2201 
Q 2184 2475 1800 2475 
Q 1419 2475 1153 2201 
Q 888 1928 888 1484 
z
" transform="scale(0.015625)"/>
        <path id="ArialMT-41" d="M -9 0 
L 1750 4581 
L 2403 4581 
L 4278 0 
L 3588 0 
L 3053 1388 
L 1138 1388 
L 634 0 
L -9 0 
z
M 1313 1881 
L 2866 1881 
L 2388 3150 
Q 2169 3728 2063 4100 
Q 1975 3659 1816 3225 
L 1313 1881 
z
" transform="scale(0.015625)"/>
       </defs>
       <use xlink:href="#ArialMT-36"/>
       <use xlink:href="#ArialMT-41" x="55.615234"/>
      </g>
     </g>
    </g>
    <g id="xtick_2">
     <g id="text_2">
      <!-- 6B -->
      <g style="fill: #262626" transform="translate(338.671875 449.073828) scale(0.165 -0.165)">
       <defs>
        <path id="ArialMT-42" d="M 469 0 
L 469 4581 
L 2188 4581 
Q 2713 4581 3030 4442 
Q 3347 4303 3526 4014 
Q 3706 3725 3706 3409 
Q 3706 3116 3547 2856 
Q 3388 2597 3066 2438 
Q 3481 2316 3704 2022 
Q 3928 1728 3928 1328 
Q 3928 1006 3792 729 
Q 3656 453 3456 303 
Q 3256 153 2954 76 
Q 2653 0 2216 0 
L 469 0 
z
M 1075 2656 
L 2066 2656 
Q 2469 2656 2644 2709 
Q 2875 2778 2992 2937 
Q 3109 3097 3109 3338 
Q 3109 3566 3000 3739 
Q 2891 3913 2687 3977 
Q 2484 4041 1991 4041 
L 1075 4041 
L 1075 2656 
z
M 1075 541 
L 2216 541 
Q 2509 541 2628 563 
Q 2838 600 2978 687 
Q 3119 775 3209 942 
Q 3300 1109 3300 1328 
Q 3300 1584 3169 1773 
Q 3038 1963 2805 2039 
Q 2572 2116 2134 2116 
L 1075 2116 
L 1075 541 
z
" transform="scale(0.015625)"/>
       </defs>
       <use xlink:href="#ArialMT-36"/>
       <use xlink:href="#ArialMT-42" x="55.615234"/>
      </g>
     </g>
    </g>
    <g id="xtick_3">
     <g id="text_3">
      <!-- 5A -->
      <g style="fill: #262626" transform="translate(532.171875 449.073828) scale(0.165 -0.165)">
       <defs>
        <path id="ArialMT-35" d="M 266 1200 
L 856 1250 
Q 922 819 1161 601 
Q 1400 384 1738 384 
Q 2144 384 2425 690 
Q 2706 997 2706 1503 
Q 2706 1984 2436 2262 
Q 2166 2541 1728 2541 
Q 1456 2541 1237 2417 
Q 1019 2294 894 2097 
L 366 2166 
L 809 4519 
L 3088 4519 
L 3088 3981 
L 1259 3981 
L 1013 2750 
Q 1425 3038 1878 3038 
Q 2478 3038 2890 2622 
Q 3303 2206 3303 1553 
Q 3303 931 2941 478 
Q 2500 -78 1738 -78 
Q 1113 -78 717 272 
Q 322 622 266 1200 
z
" transform="scale(0.015625)"/>
       </defs>
       <use xlink:href="#ArialMT-35"/>
       <use xlink:href="#ArialMT-41" x="55.615234"/>
      </g>
     </g>
    </g>
    <g id="xtick_4">
     <g id="text_4">
      <!-- 5B -->
      <g style="fill: #262626" transform="translate(725.671875 449.073828) scale(0.165 -0.165)">
       <use xlink:href="#ArialMT-35"/>
       <use xlink:href="#ArialMT-42" x="55.615234"/>
      </g>
     </g>
    </g>
    <g id="text_5">
     <!-- Turma/Período -->
     <g style="fill: #262626" transform="translate(385.83 469.237266) scale(0.18 -0.18)">
      <defs>
       <path id="ArialMT-54" d="M 1659 0 
L 1659 4041 
L 150 4041 
L 150 4581 
L 3781 4581 
L 3781 4041 
L 2266 4041 
L 2266 0 
L 1659 0 
z
" transform="scale(0.015625)"/>
       <path id="ArialMT-75" d="M 2597 0 
L 2597 488 
Q 2209 -75 1544 -75 
Q 1250 -75 995 37 
Q 741 150 617 320 
Q 494 491 444 738 
Q 409 903 409 1263 
L 409 3319 
L 972 3319 
L 972 1478 
Q 972 1038 1006 884 
Q 1059 663 1231 536 
Q 1403 409 1656 409 
Q 1909 409 2131 539 
Q 2353 669 2445 892 
Q 2538 1116 2538 1541 
L 2538 3319 
L 3100 3319 
L 3100 0 
L 2597 0 
z
" transform="scale(0.015625)"/>
       <path id="ArialMT-72" d="M 416 0 
L 416 3319 
L 922 3319 
L 922 2816 
Q 1116 3169 1280 3281 
Q 1444 3394 1641 3394 
Q 1925 3394 2219 3213 
L 2025 2691 
Q 1819 2813 1613 2813 
Q 1428 2813 1281 2702 
Q 1134 2591 1072 2394 
Q 978 2094 978 1738 
L 978 0 
L 416 0 
z
" transform="scale(0.015625)"/>
       <path id="ArialMT-6d" d="M 422 0 
L 422 3319 
L 925 3319 
L 925 2853 
Q 1081 3097 1340 3245 
Q 1600 3394 1931 3394 
Q 2300 3394 2536 3241 
Q 2772 3088 2869 2813 
Q 3263 3394 3894 3394 
Q 4388 3394 4653 3120 
Q 4919 2847 4919 2278 
L 4919 0 
L 4359 0 
L 4359 2091 
Q 4359 2428 4304 2576 
Q 4250 2725 4106 2815 
Q 3963 2906 3769 2906 
Q 3419 2906 3187 2673 
Q 2956 2441 2956 1928 
L 2956 0 
L 2394 0 
L 2394 2156 
Q 2394 2531 2256 2718 
Q 2119 2906 1806 2906 
Q 1569 2906 1367 2781 
Q 1166 2656 1075 2415 
Q 984 2175 984 1722 
L 984 0 
L 422 0 
z
" transform="scale(0.015625)"/>
       <path id="ArialMT-61" d="M 2588 409 
Q 2275 144 1986 34 
Q 1697 -75 1366 -75 
Q 819 -75 525 192 
Q 231 459 231 875 
Q 231 1119 342 1320 
Q 453 1522 633 1644 
Q 813 1766 1038 1828 
Q 1203 1872 1538 1913 
Q 2219 1994 2541 2106 
Q 2544 2222 2544 2253 
Q 2544 2597 2384 2738 
Q 2169 2928 1744 2928 
Q 1347 2928 1158 2789 
Q 969 2650 878 2297 
L 328 2372 
Q 403 2725 575 2942 
Q 747 3159 1072 3276 
Q 1397 3394 1825 3394 
Q 2250 3394 2515 3294 
Q 2781 3194 2906 3042 
Q 3031 2891 3081 2659 
Q 3109 2516 3109 2141 
L 3109 1391 
Q 3109 606 3145 398 
Q 3181 191 3288 0 
L 2700 0 
Q 2613 175 2588 409 
z
M 2541 1666 
Q 2234 1541 1622 1453 
Q 1275 1403 1131 1340 
Q 988 1278 909 1158 
Q 831 1038 831 891 
Q 831 666 1001 516 
Q 1172 366 1500 366 
Q 1825 366 2078 508 
Q 2331 650 2450 897 
Q 2541 1088 2541 1459 
L 2541 1666 
z
" transform="scale(0.015625)"/>
       <path id="ArialMT-2f" d="M 0 -78 
L 1328 4659 
L 1778 4659 
L 453 -78 
L 0 -78 
z
" transform="scale(0.015625)"/>
       <path id="ArialMT-50" d="M 494 0 
L 494 4581 
L 2222 4581 
Q 2678 4581 2919 4538 
Q 3256 4481 3484 4323 
Q 3713 4166 3852 3881 
Q 3991 3597 3991 3256 
Q 3991 2672 3619 2267 
Q 3247 1863 2275 1863 
L 1100 1863 
L 1100 0 
L 494 0 
z
M 1100 2403 
L 2284 2403 
Q 2872 2403 3119 2622 
Q 3366 2841 3366 3238 
Q 3366 3525 3220 3729 
Q 3075 3934 2838 4000 
Q 2684 4041 2272 4041 
L 1100 4041 
L 1100 2403 
z
" transform="scale(0.015625)"/>
       <path id="ArialMT-65" d="M 2694 1069 
L 3275 997 
Q 3138 488 2766 206 
Q 2394 -75 1816 -75 
Q 1088 -75 661 373 
Q 234 822 234 1631 
Q 234 2469 665 2931 
Q 1097 3394 1784 3394 
Q 2450 3394 2872 2941 
Q 3294 2488 3294 1666 
Q 3294 1616 3291 1516 
L 816 1516 
Q 847 969 1125 678 
Q 1403 388 1819 388 
Q 2128 388 2347 550 
Q 2566 713 2694 1069 
z
M 847 1978 
L 2700 1978 
Q 2663 2397 2488 2606 
Q 2219 2931 1791 2931 
Q 1403 2931 1139 2672 
Q 875 2413 847 1978 
z
" transform="scale(0.015625)"/>
       <path id="ArialMT-ed" d="M 619 0 
L 619 3319 
L 1181 3319 
L 1181 0 
L 619 0 
z
M 590 3731 
L 1005 4606 
L 1743 4606 
L 1055 3731 
L 590 3731 
z
" transform="scale(0.015625)"/>
       <path id="ArialMT-6f" d="M 213 1659 
Q 213 2581 725 3025 
Q 1153 3394 1769 3394 
Q 2453 3394 2887 2945 
Q 3322 2497 3322 1706 
Q 3322 1066 3130 698 
Q 2938 331 2570 128 
Q 2203 -75 1769 -75 
Q 1072 -75 642 372 
Q 213 819 213 1659 
z
M 791 1659 
Q 791 1022 1069 705 
Q 1347 388 1769 388 
Q 2188 388 2466 706 
Q 2744 1025 2744 1678 
Q 2744 2294 2464 2611 
Q 2184 2928 1769 2928 
Q 1347 2928 1069 2612 
Q 791 2297 791 1659 
z
" transform="scale(0.015625)"/>
       <path id="ArialMT-64" d="M 2575 0 
L 2575 419 
Q 2259 -75 1647 -75 
Q 1250 -75 917 144 
Q 584 363 401 755 
Q 219 1147 219 1656 
Q 219 2153 384 2558 
Q 550 2963 881 3178 
Q 1213 3394 1622 3394 
Q 1922 3394 2156 3267 
Q 2391 3141 2538 2938 
L 2538 4581 
L 3097 4581 
L 3097 0 
L 2575 0 
z
M 797 1656 
Q 797 1019 1065 703 
Q 1334 388 1700 388 
Q 2069 388 2326 689 
Q 2584 991 2584 1609 
Q 2584 2291 2321 2609 
Q 2059 2928 1675 2928 
Q 1300 2928 1048 2622 
Q 797 2316 797 1656 
z
" transform="scale(0.015625)"/>
      </defs>
      <use xlink:href="#ArialMT-54"/>
      <use xlink:href="#ArialMT-75" x="57.333984"/>
      <use xlink:href="#ArialMT-72" x="112.949219"/>
      <use xlink:href="#ArialMT-6d" x="146.25"/>
      <use xlink:href="#ArialMT-61" x="229.550781"/>
      <use xlink:href="#ArialMT-2f" x="285.166016"/>
      <use xlink:href="#ArialMT-50" x="312.949219"/>
      <use xlink:href="#ArialMT-65" x="379.648438"/>
      <use xlink:href="#ArialMT-72" x="435.263672"/>
      <use xlink:href="#ArialMT-ed" x="468.564453"/>
      <use xlink:href="#ArialMT-6f" x="496.347656"/>
      <use xlink:href="#ArialMT-64" x="551.962891"/>
      <use xlink:href="#ArialMT-6f" x="607.578125"/>
     </g>
    </g>
   </g>
   <g id="matplotlib.axis_2">
    <g id="ytick_1">
     <g id="line2d_1">
      <path d="M 58.512656 366.403134 
L 832.512656 366.403134 
" clip-path="url(#peb95afe329)" style="fill: none; stroke: #cccccc; stroke-opacity: 0.3; stroke-width: 1.5; stroke-linecap: round"/>
     </g>
     <g id="text_6">
      <!-- 30 -->
      <g style="fill: #262626" transform="translate(27.661563 372.30833) scale(0.165 -0.165)">
       <defs>
        <path id="ArialMT-33" d="M 269 1209 
L 831 1284 
Q 928 806 1161 595 
Q 1394 384 1728 384 
Q 2125 384 2398 659 
Q 2672 934 2672 1341 
Q 2672 1728 2419 1979 
Q 2166 2231 1775 2231 
Q 1616 2231 1378 2169 
L 1441 2663 
Q 1497 2656 1531 2656 
Q 1891 2656 2178 2843 
Q 2466 3031 2466 3422 
Q 2466 3731 2256 3934 
Q 2047 4138 1716 4138 
Q 1388 4138 1169 3931 
Q 950 3725 888 3313 
L 325 3413 
Q 428 3978 793 4289 
Q 1159 4600 1703 4600 
Q 2078 4600 2393 4439 
Q 2709 4278 2876 4000 
Q 3044 3722 3044 3409 
Q 3044 3113 2884 2869 
Q 2725 2625 2413 2481 
Q 2819 2388 3044 2092 
Q 3269 1797 3269 1353 
Q 3269 753 2831 336 
Q 2394 -81 1725 -81 
Q 1122 -81 723 278 
Q 325 638 269 1209 
z
" transform="scale(0.015625)"/>
        <path id="ArialMT-30" d="M 266 2259 
Q 266 3072 433 3567 
Q 600 4063 929 4331 
Q 1259 4600 1759 4600 
Q 2128 4600 2406 4451 
Q 2684 4303 2865 4023 
Q 3047 3744 3150 3342 
Q 3253 2941 3253 2259 
Q 3253 1453 3087 958 
Q 2922 463 2592 192 
Q 2263 -78 1759 -78 
Q 1097 -78 719 397 
Q 266 969 266 2259 
z
M 844 2259 
Q 844 1131 1108 757 
Q 1372 384 1759 384 
Q 2147 384 2411 759 
Q 2675 1134 2675 2259 
Q 2675 3391 2411 3762 
Q 2147 4134 1753 4134 
Q 1366 4134 1134 3806 
Q 844 3388 844 2259 
z
" transform="scale(0.015625)"/>
       </defs>
       <use xlink:href="#ArialMT-33"/>
       <use xlink:href="#ArialMT-30" x="55.615234"/>
      </g>
     </g>
    </g>
    <g id="ytick_2">
     <g id="line2d_2">
      <path d="M 58.512656 299.322326 
L 832.512656 299.322326 
" clip-path="url(#peb95afe329)" style="fill: none; stroke: #cccccc; stroke-opacity: 0.3; stroke-width: 1.5; stroke-linecap: round"/>
     </g>
     <g id="text_7">
      <!-- 40 -->
      <g style="fill: #262626" transform="translate(27.661563 305.227522) scale(0.165 -0.165)">
       <defs>
        <path id="ArialMT-34" d="M 2069 0 
L 2069 1097 
L 81 1097 
L 81 1613 
L 2172 4581 
L 2631 4581 
L 2631 1613 
L 3250 1613 
L 3250 1097 
L 2631 1097 
L 2631 0 
L 2069 0 
z
M 2069 1613 
L 2069 3678 
L 634 1613 
L 2069 1613 
z
" transform="scale(0.015625)"/>
       </defs>
       <use xlink:href="#ArialMT-34"/>
       <use xlink:href="#ArialMT-30" x="55.615234"/>
      </g>
     </g>
    </g>
    <g id="ytick_3">
     <g id="line2d_3">
      <path d="M 58.512656 232.241518 
L 832.512656 232.241518 
" clip-path="url(#peb95afe329)" style="fill: none; stroke: #cccccc; stroke-opacity: 0.3; stroke-width: 1.5; stroke-linecap: round"/>
     </g>
     <g id="text_8">
      <!-- 50 -->
      <g style="fill: #262626" transform="translate(27.661563 238.146714) scale(0.165 -0.165)">
       <use xlink:href="#ArialMT-35"/>
       <use xlink:href="#ArialMT-30" x="55.615234"/>
      </g>
     </g>
    </g>
    <g id="ytick_4">
     <g id="line2d_4">
      <path d="M 58.512656 165.16071 
L 832.512656 165.16071 
" clip-path="url(#peb95afe329)" style="fill: none; stroke: #cccccc; stroke-opacity: 0.3; stroke-width: 1.5; stroke-linecap: round"/>
     </g>
     <g id="text_9">
      <!-- 60 -->
      <g style="fill: #262626" transform="translate(27.661563 171.065906) scale(0.165 -0.165)">
       <use xlink:href="#ArialMT-36"/>
       <use xlink:href="#ArialMT-30" x="55.615234"/>
      </g>
     </g>
    </g>
    <g id="ytick_5">
     <g id="line2d_5">
      <path d="M 58.512656 98.079902 
L 832.512656 98.079902 
" clip-path="url(#peb95afe329)" style="fill: none; stroke: #cccccc; stroke-opacity: 0.3; stroke-width: 1.5; stroke-linecap: round"/>
     </g>
     <g id="text_10">
      <!-- 70 -->
      <g style="fill: #262626" transform="translate(27.661563 103.985097) scale(0.165 -0.165)">
       <defs>
        <path id="ArialMT-37" d="M 303 3981 
L 303 4522 
L 3269 4522 
L 3269 4084 
Q 2831 3619 2401 2847 
Q 1972 2075 1738 1259 
Q 1569 684 1522 0 
L 944 0 
Q 953 541 1156 1306 
Q 1359 2072 1739 2783 
Q 2119 3494 2547 3981 
L 303 3981 
z
" transform="scale(0.015625)"/>
       </defs>
       <use xlink:href="#ArialMT-37"/>
       <use xlink:href="#ArialMT-30" x="55.615234"/>
      </g>
     </g>
    </g>
    <g id="ytick_6">
     <g id="line2d_6">
      <path d="M 58.512656 30.999094 
L 832.512656 30.999094 
" clip-path="url(#peb95afe329)" style="fill: none; stroke: #cccccc; stroke-opacity: 0.3; stroke-width: 1.5; stroke-linecap: round"/>
     </g>
     <g id="text_11">
      <!-- 80 -->
      <g style="fill: #262626" transform="translate(27.661563 36.904289) scale(0.165 -0.165)">
       <defs>
        <path id="ArialMT-38" d="M 1131 2484 
Q 781 2613 612 2850 
Q 444 3088 444 3419 
Q 444 3919 803 4259 
Q 1163 4600 1759 4600 
Q 2359 4600 2725 4251 
Q 3091 3903 3091 3403 
Q 3091 3084 2923 2848 
Q 2756 2613 2416 2484 
Q 2838 2347 3058 2040 
Q 3278 1734 3278 1309 
Q 3278 722 2862 322 
Q 2447 -78 1769 -78 
Q 1091 -78 675 323 
Q 259 725 259 1325 
Q 259 1772 486 2073 
Q 713 2375 1131 2484 
z
M 1019 3438 
Q 1019 3113 1228 2906 
Q 1438 2700 1772 2700 
Q 2097 2700 2305 2904 
Q 2513 3109 2513 3406 
Q 2513 3716 2298 3927 
Q 2084 4138 1766 4138 
Q 1444 4138 1231 3931 
Q 1019 3725 1019 3438 
z
M 838 1322 
Q 838 1081 952 856 
Q 1066 631 1291 507 
Q 1516 384 1775 384 
Q 2178 384 2440 643 
Q 2703 903 2703 1303 
Q 2703 1709 2433 1975 
Q 2163 2241 1756 2241 
Q 1359 2241 1098 1978 
Q 838 1716 838 1322 
z
" transform="scale(0.015625)"/>
       </defs>
       <use xlink:href="#ArialMT-38"/>
       <use xlink:href="#ArialMT-30" x="55.615234"/>
      </g>
     </g>
    </g>
    <g id="text_12">
     <!-- Pontuação total -->
     <g style="fill: #262626" transform="translate(20.084063 288.076406) rotate(-90) scale(0.18 -0.18)">
      <defs>
       <path id="ArialMT-6e" d="M 422 0 
L 422 3319 
L 928 3319 
L 928 2847 
Q 1294 3394 1984 3394 
Q 2284 3394 2536 3286 
Q 2788 3178 2913 3003 
Q 3038 2828 3088 2588 
Q 3119 2431 3119 2041 
L 3119 0 
L 2556 0 
L 2556 2019 
Q 2556 2363 2490 2533 
Q 2425 2703 2258 2804 
Q 2091 2906 1866 2906 
Q 1506 2906 1245 2678 
Q 984 2450 984 1813 
L 984 0 
L 422 0 
z
" transform="scale(0.015625)"/>
       <path id="ArialMT-74" d="M 1650 503 
L 1731 6 
Q 1494 -44 1306 -44 
Q 1000 -44 831 53 
Q 663 150 594 308 
Q 525 466 525 972 
L 525 2881 
L 113 2881 
L 113 3319 
L 525 3319 
L 525 4141 
L 1084 4478 
L 1084 3319 
L 1650 3319 
L 1650 2881 
L 1084 2881 
L 1084 941 
Q 1084 700 1114 631 
Q 1144 563 1211 522 
Q 1278 481 1403 481 
Q 1497 481 1650 503 
z
" transform="scale(0.015625)"/>
       <path id="ArialMT-e7" d="M 2588 1216 
L 3141 1144 
Q 3050 572 2676 248 
Q 2303 -75 1759 -75 
Q 1078 -75 664 370 
Q 250 816 250 1647 
Q 250 2184 428 2587 
Q 606 2991 970 3192 
Q 1334 3394 1763 3394 
Q 2303 3394 2647 3120 
Q 2991 2847 3088 2344 
L 2541 2259 
Q 2463 2594 2264 2762 
Q 2066 2931 1784 2931 
Q 1359 2931 1093 2626 
Q 828 2322 828 1663 
Q 828 994 1084 691 
Q 1341 388 1753 388 
Q 2084 388 2306 591 
Q 2528 794 2588 1216 
z
M 1283 -417 
L 1446 136 
L 1864 136 
L 1761 -199 
Q 2027 -230 2161 -362 
Q 2296 -495 2296 -658 
Q 2296 -892 2071 -1072 
Q 1846 -1252 1392 -1252 
Q 1136 -1252 942 -1214 
L 977 -849 
Q 1177 -861 1271 -861 
Q 1564 -861 1683 -780 
Q 1774 -717 1774 -627 
Q 1774 -570 1738 -526 
Q 1702 -483 1605 -451 
Q 1508 -420 1283 -417 
z
" transform="scale(0.015625)"/>
       <path id="ArialMT-e3" d="M 2588 409 
Q 2275 144 1986 34 
Q 1697 -75 1366 -75 
Q 819 -75 525 192 
Q 231 459 231 875 
Q 231 1119 342 1320 
Q 453 1522 633 1644 
Q 813 1766 1038 1828 
Q 1203 1872 1538 1913 
Q 2219 1994 2541 2106 
Q 2544 2222 2544 2253 
Q 2544 2597 2384 2738 
Q 2169 2928 1744 2928 
Q 1347 2928 1158 2789 
Q 969 2650 878 2297 
L 328 2372 
Q 403 2725 575 2942 
Q 747 3159 1072 3276 
Q 1397 3394 1825 3394 
Q 2250 3394 2515 3294 
Q 2781 3194 2906 3042 
Q 3031 2891 3081 2659 
Q 3109 2516 3109 2141 
L 3109 1391 
Q 3109 606 3145 398 
Q 3181 191 3288 0 
L 2700 0 
Q 2613 175 2588 409 
z
M 2541 1666 
Q 2234 1541 1622 1453 
Q 1275 1403 1131 1340 
Q 988 1278 909 1158 
Q 831 1038 831 891 
Q 831 666 1001 516 
Q 1172 366 1500 366 
Q 1825 366 2078 508 
Q 2331 650 2450 897 
Q 2541 1088 2541 1459 
L 2541 1666 
z
M 718 3809 
Q 715 4134 896 4328 
Q 1074 4522 1352 4522 
Q 1546 4522 1880 4353 
Q 2065 4259 2174 4259 
Q 2274 4259 2327 4314 
Q 2380 4369 2402 4531 
L 2809 4531 
Q 2799 4175 2629 3997 
Q 2459 3819 2196 3819 
Q 1999 3819 1677 3994 
Q 1468 4106 1371 4106 
Q 1265 4106 1199 4031 
Q 1130 3956 1134 3809 
L 718 3809 
z
" transform="scale(0.015625)"/>
       <path id="ArialMT-20" transform="scale(0.015625)"/>
       <path id="ArialMT-6c" d="M 409 0 
L 409 4581 
L 972 4581 
L 972 0 
L 409 0 
z
" transform="scale(0.015625)"/>
      </defs>
      <use xlink:href="#ArialMT-50"/>
      <use xlink:href="#ArialMT-6f" x="66.699219"/>
      <use xlink:href="#ArialMT-6e" x="122.314453"/>
      <use xlink:href="#ArialMT-74" x="177.929688"/>
      <use xlink:href="#ArialMT-75" x="205.712891"/>
      <use xlink:href="#ArialMT-61" x="261.328125"/>
      <use xlink:href="#ArialMT-e7" x="316.943359"/>
      <use xlink:href="#ArialMT-e3" x="366.943359"/>
      <use xlink:href="#ArialMT-6f" x="422.558594"/>
      <use xlink:href="#ArialMT-20" x="478.173828"/>
      <use xlink:href="#ArialMT-74" x="505.957031"/>
      <use xlink:href="#ArialMT-6f" x="533.740234"/>
      <use xlink:href="#ArialMT-74" x="589.355469"/>
      <use xlink:href="#ArialMT-61" x="617.138672"/>
      <use xlink:href="#ArialMT-6c" x="672.753906"/>
     </g>
    </g>
   </g>
   <g id="patch_3">
    <path d="M 77.862656 265.781922 
L 232.662656 265.781922 
L 232.662656 181.930912 
L 77.862656 181.930912 
L 77.862656 265.781922 
z
" clip-path="url(#peb95afe329)" style="fill: #5875a4; stroke: #4c4c4c; stroke-linejoin: miter"/>
   </g>
   <g id="line2d_7">
    <path d="M 155.262656 265.781922 
L 155.262656 379.819296 
" clip-path="url(#peb95afe329)" style="fill: none; stroke: #4c4c4c"/>
   </g>
   <g id="line2d_8">
    <path d="M 155.262656 181.930912 
L 155.262656 98.079902 
" clip-path="url(#peb95afe329)" style="fill: none; stroke: #4c4c4c"/>
   </g>
   <g id="line2d_9">
    <path d="M 116.562656 379.819296 
L 193.962656 379.819296 
" clip-path="url(#peb95afe329)" style="fill: none; stroke: #4c4c4c; stroke-linecap: round"/>
   </g>
   <g id="line2d_10">
    <path d="M 116.562656 98.079902 
L 193.962656 98.079902 
" clip-path="url(#peb95afe329)" style="fill: none; stroke: #4c4c4c; stroke-linecap: round"/>
   </g>
   <g id="line2d_11"/>
   <g id="patch_4">
    <path d="M 271.362656 243.98066 
L 426.162656 243.98066 
L 426.162656 131.620306 
L 271.362656 131.620306 
L 271.362656 243.98066 
z
" clip-path="url(#peb95afe329)" style="fill: #5875a4; stroke: #4c4c4c; stroke-linejoin: miter"/>
   </g>
   <g id="line2d_12">
    <path d="M 348.762656 243.98066 
L 348.762656 406.651619 
" clip-path="url(#peb95afe329)" style="fill: none; stroke: #4c4c4c"/>
   </g>
   <g id="line2d_13">
    <path d="M 348.762656 131.620306 
L 348.762656 44.415256 
" clip-path="url(#peb95afe329)" style="fill: none; stroke: #4c4c4c"/>
   </g>
   <g id="line2d_14">
    <path d="M 310.062656 406.651619 
L 387.462656 406.651619 
" clip-path="url(#peb95afe329)" style="fill: none; stroke: #4c4c4c; stroke-linecap: round"/>
   </g>
   <g id="line2d_15">
    <path d="M 310.062656 44.415256 
L 387.462656 44.415256 
" clip-path="url(#peb95afe329)" style="fill: none; stroke: #4c4c4c; stroke-linecap: round"/>
   </g>
   <g id="line2d_16"/>
   <g id="patch_5">
    <path d="M 464.862656 299.322326 
L 619.662656 299.322326 
L 619.662656 218.825357 
L 464.862656 218.825357 
L 464.862656 299.322326 
z
" clip-path="url(#peb95afe329)" style="fill: #5875a4; stroke: #4c4c4c; stroke-linejoin: miter"/>
   </g>
   <g id="line2d_17">
    <path d="M 542.262656 299.322326 
L 542.262656 386.527377 
" clip-path="url(#peb95afe329)" style="fill: none; stroke: #4c4c4c"/>
   </g>
   <g id="line2d_18">
    <path d="M 542.262656 218.825357 
L 542.262656 151.744549 
" clip-path="url(#peb95afe329)" style="fill: none; stroke: #4c4c4c"/>
   </g>
   <g id="line2d_19">
    <path d="M 503.562656 386.527377 
L 580.962656 386.527377 
" clip-path="url(#peb95afe329)" style="fill: none; stroke: #4c4c4c; stroke-linecap: round"/>
   </g>
   <g id="line2d_20">
    <path d="M 503.562656 151.744549 
L 580.962656 151.744549 
" clip-path="url(#peb95afe329)" style="fill: none; stroke: #4c4c4c; stroke-linecap: round"/>
   </g>
   <g id="line2d_21"/>
   <g id="patch_6">
    <path d="M 658.362656 292.614246 
L 813.162656 292.614246 
L 813.162656 205.409195 
L 658.362656 205.409195 
L 658.362656 292.614246 
z
" clip-path="url(#peb95afe329)" style="fill: #5875a4; stroke: #4c4c4c; stroke-linejoin: miter"/>
   </g>
   <g id="line2d_22">
    <path d="M 735.762656 292.614246 
L 735.762656 386.527377 
" clip-path="url(#peb95afe329)" style="fill: none; stroke: #4c4c4c"/>
   </g>
   <g id="line2d_23">
    <path d="M 735.762656 205.409195 
L 735.762656 84.663741 
" clip-path="url(#peb95afe329)" style="fill: none; stroke: #4c4c4c"/>
   </g>
   <g id="line2d_24">
    <path d="M 697.062656 386.527377 
L 774.462656 386.527377 
" clip-path="url(#peb95afe329)" style="fill: none; stroke: #4c4c4c; stroke-linecap: round"/>
   </g>
   <g id="line2d_25">
    <path d="M 697.062656 84.663741 
L 774.462656 84.663741 
" clip-path="url(#peb95afe329)" style="fill: none; stroke: #4c4c4c; stroke-linecap: round"/>
   </g>
   <g id="line2d_26">
    <defs>
     <path id="m69faa772a6" d="M 0 4.5 
C 1.193414 4.5 2.338109 4.025852 3.181981 3.181981 
C 4.025852 2.338109 4.5 1.193414 4.5 0 
C 4.5 -1.193414 4.025852 -2.338109 3.181981 -3.181981 
C 2.338109 -4.025852 1.193414 -4.5 0 -4.5 
C -1.193414 -4.5 -2.338109 -4.025852 -3.181981 -3.181981 
C -4.025852 -2.338109 -4.5 -1.193414 -4.5 0 
C -4.5 1.193414 -4.025852 2.338109 -3.181981 3.181981 
C -2.338109 4.025852 -1.193414 4.5 0 4.5 
z
" style="stroke: #4c4c4c"/>
    </defs>
    <g clip-path="url(#peb95afe329)">
     <use xlink:href="#m69faa772a6" x="735.762656" y="57.831417" style="fill-opacity: 0; stroke: #4c4c4c"/>
    </g>
   </g>
   <g id="line2d_27">
    <path d="M 77.862656 218.825357 
L 232.662656 218.825357 
" clip-path="url(#peb95afe329)" style="fill: none; stroke: #4c4c4c"/>
   </g>
   <g id="line2d_28">
    <path d="M 271.362656 191.993033 
L 426.162656 191.993033 
" clip-path="url(#peb95afe329)" style="fill: none; stroke: #4c4c4c"/>
   </g>
   <g id="line2d_29">
    <path d="M 464.862656 259.073842 
L 619.662656 259.073842 
" clip-path="url(#peb95afe329)" style="fill: none; stroke: #4c4c4c"/>
   </g>
   <g id="line2d_30">
    <path d="M 658.362656 245.65768 
L 813.162656 245.65768 
" clip-path="url(#peb95afe329)" style="fill: none; stroke: #4c4c4c"/>
   </g>
   <g id="patch_7">
    <path d="M 58.512656 424.763437 
L 58.512656 26.303437 
" style="fill: none; stroke: #cccccc; stroke-width: 1.875; stroke-linejoin: miter; stroke-linecap: square"/>
   </g>
   <g id="patch_8">
    <path d="M 832.512656 424.763437 
L 832.512656 26.303437 
" style="fill: none; stroke: #cccccc; stroke-width: 1.875; stroke-linejoin: miter; stroke-linecap: square"/>
   </g>
   <g id="patch_9">
    <path d="M 58.512656 424.763437 
L 832.512656 424.763437 
" style="fill: none; stroke: #cccccc; stroke-width: 1.875; stroke-linejoin: miter; stroke-linecap: square"/>
   </g>
   <g id="patch_10">
    <path d="M 58.512656 26.303437 
L 832.512656 26.303437 
" style="fill: none; stroke: #cccccc; stroke-width: 1.875; stroke-linejoin: miter; stroke-linecap: square"/>
   </g>
   <g id="PathCollection_1">
    <defs>
     <path id="m6397f3d61c" d="M 0 2 
C 0.530406 2 1.03916 1.789267 1.414214 1.414214 
C 1.789267 1.03916 2 0.530406 2 0 
C 2 -0.530406 1.789267 -1.03916 1.414214 -1.414214 
C 1.03916 -1.789267 0.530406 -2 0 -2 
C -0.530406 -2 -1.03916 -1.789267 -1.414214 -1.414214 
C -1.789267 -1.03916 -2 -0.530406 -2 0 
C -2 0.530406 -1.789267 1.03916 -1.414214 1.414214 
C -1.03916 1.789267 -0.530406 2 0 2 
z
"/>
    </defs>
    <g clip-path="url(#peb95afe329)">
     <use xlink:href="#m6397f3d61c" x="137.73357" y="198.701114" style="fill-opacity: 0.45"/>
     <use xlink:href="#m6397f3d61c" x="136.169805" y="265.781922" style="fill-opacity: 0.45"/>
     <use xlink:href="#m6397f3d61c" x="152.305193" y="326.15465" style="fill-opacity: 0.45"/>
     <use xlink:href="#m6397f3d61c" x="145.388766" y="292.614246" style="fill-opacity: 0.45"/>
     <use xlink:href="#m6397f3d61c" x="142.766517" y="225.533437" style="fill-opacity: 0.45"/>
     <use xlink:href="#m6397f3d61c" x="161.396806" y="265.781922" style="fill-opacity: 0.45"/>
     <use xlink:href="#m6397f3d61c" x="137.638928" y="198.701114" style="fill-opacity: 0.45"/>
     <use xlink:href="#m6397f3d61c" x="160.910962" y="218.825357" style="fill-opacity: 0.45"/>
     <use xlink:href="#m6397f3d61c" x="147.530369" y="178.576872" style="fill-opacity: 0.45"/>
     <use xlink:href="#m6397f3d61c" x="142.505482" y="165.16071" style="fill-opacity: 0.45"/>
     <use xlink:href="#m6397f3d61c" x="150.333697" y="279.198084" style="fill-opacity: 0.45"/>
     <use xlink:href="#m6397f3d61c" x="141.8454" y="339.570811" style="fill-opacity: 0.45"/>
     <use xlink:href="#m6397f3d61c" x="139.3687" y="265.781922" style="fill-opacity: 0.45"/>
     <use xlink:href="#m6397f3d61c" x="143.280097" y="245.65768" style="fill-opacity: 0.45"/>
     <use xlink:href="#m6397f3d61c" x="165.920738" y="185.284953" style="fill-opacity: 0.45"/>
     <use xlink:href="#m6397f3d61c" x="159.946873" y="272.490003" style="fill-opacity: 0.45"/>
     <use xlink:href="#m6397f3d61c" x="143.350213" y="272.490003" style="fill-opacity: 0.45"/>
     <use xlink:href="#m6397f3d61c" x="159.684671" y="158.452629" style="fill-opacity: 0.45"/>
     <use xlink:href="#m6397f3d61c" x="164.733889" y="171.868791" style="fill-opacity: 0.45"/>
     <use xlink:href="#m6397f3d61c" x="165.605316" y="191.993033" style="fill-opacity: 0.45"/>
     <use xlink:href="#m6397f3d61c" x="163.756228" y="171.868791" style="fill-opacity: 0.45"/>
     <use xlink:href="#m6397f3d61c" x="163.955599" y="218.825357" style="fill-opacity: 0.45"/>
     <use xlink:href="#m6397f3d61c" x="159.038419" y="245.65768" style="fill-opacity: 0.45"/>
     <use xlink:href="#m6397f3d61c" x="141.001483" y="306.030407" style="fill-opacity: 0.45"/>
     <use xlink:href="#m6397f3d61c" x="173.38243" y="379.819296" style="fill-opacity: 0.45"/>
     <use xlink:href="#m6397f3d61c" x="172.708861" y="178.576872" style="fill-opacity: 0.45"/>
     <use xlink:href="#m6397f3d61c" x="143.365127" y="225.533437" style="fill-opacity: 0.45"/>
     <use xlink:href="#m6397f3d61c" x="174.009216" y="198.701114" style="fill-opacity: 0.45"/>
     <use xlink:href="#m6397f3d61c" x="155.614406" y="205.409195" style="fill-opacity: 0.45"/>
     <use xlink:href="#m6397f3d61c" x="154.908967" y="198.701114" style="fill-opacity: 0.45"/>
     <use xlink:href="#m6397f3d61c" x="166.58165" y="145.036468" style="fill-opacity: 0.45"/>
     <use xlink:href="#m6397f3d61c" x="161.067779" y="238.949599" style="fill-opacity: 0.45"/>
     <use xlink:href="#m6397f3d61c" x="137.647147" y="124.912225" style="fill-opacity: 0.45"/>
     <use xlink:href="#m6397f3d61c" x="136.463529" y="98.079902" style="fill-opacity: 0.45"/>
     <use xlink:href="#m6397f3d61c" x="168.28816" y="259.073842" style="fill-opacity: 0.45"/>
     <use xlink:href="#m6397f3d61c" x="138.698709" y="185.284953" style="fill-opacity: 0.45"/>
     <use xlink:href="#m6397f3d61c" x="173.593168" y="238.949599" style="fill-opacity: 0.45"/>
     <use xlink:href="#m6397f3d61c" x="172.28457" y="191.993033" style="fill-opacity: 0.45"/>
     <use xlink:href="#m6397f3d61c" x="145.133175" y="306.030407" style="fill-opacity: 0.45"/>
     <use xlink:href="#m6397f3d61c" x="170.899554" y="104.787983" style="fill-opacity: 0.45"/>
     <use xlink:href="#m6397f3d61c" x="141.619364" y="178.576872" style="fill-opacity: 0.45"/>
     <use xlink:href="#m6397f3d61c" x="169.922796" y="212.117276" style="fill-opacity: 0.45"/>
     <use xlink:href="#m6397f3d61c" x="155.019573" y="306.030407" style="fill-opacity: 0.45"/>
    </g>
   </g>
   <g id="PathCollection_2">
    <g clip-path="url(#peb95afe329)">
     <use xlink:href="#m6397f3d61c" x="348.692256" y="138.328387" style="fill-opacity: 0.45"/>
     <use xlink:href="#m6397f3d61c" x="358.685191" y="346.278892" style="fill-opacity: 0.45"/>
     <use xlink:href="#m6397f3d61c" x="350.572921" y="44.415256" style="fill-opacity: 0.45"/>
     <use xlink:href="#m6397f3d61c" x="354.037244" y="292.614246" style="fill-opacity: 0.45"/>
     <use xlink:href="#m6397f3d61c" x="363.426562" y="265.781922" style="fill-opacity: 0.45"/>
     <use xlink:href="#m6397f3d61c" x="357.317704" y="185.284953" style="fill-opacity: 0.45"/>
     <use xlink:href="#m6397f3d61c" x="353.059096" y="171.868791" style="fill-opacity: 0.45"/>
     <use xlink:href="#m6397f3d61c" x="330.183092" y="285.906165" style="fill-opacity: 0.45"/>
     <use xlink:href="#m6397f3d61c" x="347.247436" y="165.16071" style="fill-opacity: 0.45"/>
     <use xlink:href="#m6397f3d61c" x="330.090924" y="238.949599" style="fill-opacity: 0.45"/>
     <use xlink:href="#m6397f3d61c" x="342.828259" y="138.328387" style="fill-opacity: 0.45"/>
     <use xlink:href="#m6397f3d61c" x="339.758499" y="124.912225" style="fill-opacity: 0.45"/>
     <use xlink:href="#m6397f3d61c" x="363.692823" y="198.701114" style="fill-opacity: 0.45"/>
     <use xlink:href="#m6397f3d61c" x="366.784826" y="131.620306" style="fill-opacity: 0.45"/>
     <use xlink:href="#m6397f3d61c" x="362.761877" y="406.651619" style="fill-opacity: 0.45"/>
     <use xlink:href="#m6397f3d61c" x="338.08535" y="131.620306" style="fill-opacity: 0.45"/>
     <use xlink:href="#m6397f3d61c" x="351.030106" y="232.241518" style="fill-opacity: 0.45"/>
     <use xlink:href="#m6397f3d61c" x="361.381963" y="111.496064" style="fill-opacity: 0.45"/>
     <use xlink:href="#m6397f3d61c" x="362.325315" y="212.117276" style="fill-opacity: 0.45"/>
     <use xlink:href="#m6397f3d61c" x="343.713392" y="165.16071" style="fill-opacity: 0.45"/>
     <use xlink:href="#m6397f3d61c" x="331.524414" y="238.949599" style="fill-opacity: 0.45"/>
     <use xlink:href="#m6397f3d61c" x="337.328972" y="71.247579" style="fill-opacity: 0.45"/>
     <use xlink:href="#m6397f3d61c" x="346.558508" y="131.620306" style="fill-opacity: 0.45"/>
     <use xlink:href="#m6397f3d61c" x="339.179516" y="51.123336" style="fill-opacity: 0.45"/>
     <use xlink:href="#m6397f3d61c" x="343.696261" y="312.738488" style="fill-opacity: 0.45"/>
     <use xlink:href="#m6397f3d61c" x="336.847845" y="218.825357" style="fill-opacity: 0.45"/>
     <use xlink:href="#m6397f3d61c" x="338.486264" y="225.533437" style="fill-opacity: 0.45"/>
     <use xlink:href="#m6397f3d61c" x="360.773504" y="118.204145" style="fill-opacity: 0.45"/>
     <use xlink:href="#m6397f3d61c" x="353.37398" y="245.65768" style="fill-opacity: 0.45"/>
     <use xlink:href="#m6397f3d61c" x="332.974362" y="373.111215" style="fill-opacity: 0.45"/>
    </g>
   </g>
   <g id="PathCollection_3">
    <g clip-path="url(#peb95afe329)">
     <use xlink:href="#m6397f3d61c" x="531.746234" y="272.490003" style="fill-opacity: 0.45"/>
     <use xlink:href="#m6397f3d61c" x="527.231096" y="185.284953" style="fill-opacity: 0.45"/>
     <use xlink:href="#m6397f3d61c" x="542.783757" y="232.241518" style="fill-opacity: 0.45"/>
     <use xlink:href="#m6397f3d61c" x="545.144829" y="238.949599" style="fill-opacity: 0.45"/>
     <use xlink:href="#m6397f3d61c" x="535.006205" y="306.030407" style="fill-opacity: 0.45"/>
     <use xlink:href="#m6397f3d61c" x="548.65992" y="218.825357" style="fill-opacity: 0.45"/>
     <use xlink:href="#m6397f3d61c" x="550.141848" y="279.198084" style="fill-opacity: 0.45"/>
     <use xlink:href="#m6397f3d61c" x="550.761418" y="225.533437" style="fill-opacity: 0.45"/>
     <use xlink:href="#m6397f3d61c" x="525.214722" y="198.701114" style="fill-opacity: 0.45"/>
     <use xlink:href="#m6397f3d61c" x="547.628016" y="326.15465" style="fill-opacity: 0.45"/>
     <use xlink:href="#m6397f3d61c" x="545.121686" y="259.073842" style="fill-opacity: 0.45"/>
     <use xlink:href="#m6397f3d61c" x="559.523404" y="218.825357" style="fill-opacity: 0.45"/>
     <use xlink:href="#m6397f3d61c" x="557.012587" y="352.986973" style="fill-opacity: 0.45"/>
     <use xlink:href="#m6397f3d61c" x="558.609182" y="386.527377" style="fill-opacity: 0.45"/>
     <use xlink:href="#m6397f3d61c" x="539.484846" y="232.241518" style="fill-opacity: 0.45"/>
     <use xlink:href="#m6397f3d61c" x="536.514616" y="265.781922" style="fill-opacity: 0.45"/>
     <use xlink:href="#m6397f3d61c" x="552.327516" y="299.322326" style="fill-opacity: 0.45"/>
     <use xlink:href="#m6397f3d61c" x="538.644536" y="232.241518" style="fill-opacity: 0.45"/>
     <use xlink:href="#m6397f3d61c" x="527.550713" y="299.322326" style="fill-opacity: 0.45"/>
     <use xlink:href="#m6397f3d61c" x="556.849275" y="245.65768" style="fill-opacity: 0.45"/>
     <use xlink:href="#m6397f3d61c" x="535.473356" y="265.781922" style="fill-opacity: 0.45"/>
     <use xlink:href="#m6397f3d61c" x="542.451648" y="232.241518" style="fill-opacity: 0.45"/>
     <use xlink:href="#m6397f3d61c" x="549.276214" y="326.15465" style="fill-opacity: 0.45"/>
     <use xlink:href="#m6397f3d61c" x="549.171265" y="212.117276" style="fill-opacity: 0.45"/>
     <use xlink:href="#m6397f3d61c" x="537.789485" y="265.781922" style="fill-opacity: 0.45"/>
     <use xlink:href="#m6397f3d61c" x="531.212579" y="292.614246" style="fill-opacity: 0.45"/>
     <use xlink:href="#m6397f3d61c" x="553.881102" y="232.241518" style="fill-opacity: 0.45"/>
     <use xlink:href="#m6397f3d61c" x="554.648424" y="158.452629" style="fill-opacity: 0.45"/>
     <use xlink:href="#m6397f3d61c" x="552.797144" y="151.744549" style="fill-opacity: 0.45"/>
     <use xlink:href="#m6397f3d61c" x="543.251775" y="279.198084" style="fill-opacity: 0.45"/>
     <use xlink:href="#m6397f3d61c" x="553.321319" y="232.241518" style="fill-opacity: 0.45"/>
     <use xlink:href="#m6397f3d61c" x="530.858993" y="326.15465" style="fill-opacity: 0.45"/>
     <use xlink:href="#m6397f3d61c" x="538.272088" y="386.527377" style="fill-opacity: 0.45"/>
     <use xlink:href="#m6397f3d61c" x="543.932424" y="205.409195" style="fill-opacity: 0.45"/>
     <use xlink:href="#m6397f3d61c" x="549.003909" y="285.906165" style="fill-opacity: 0.45"/>
     <use xlink:href="#m6397f3d61c" x="527.749314" y="352.986973" style="fill-opacity: 0.45"/>
     <use xlink:href="#m6397f3d61c" x="552.711441" y="326.15465" style="fill-opacity: 0.45"/>
     <use xlink:href="#m6397f3d61c" x="523.882214" y="212.117276" style="fill-opacity: 0.45"/>
     <use xlink:href="#m6397f3d61c" x="528.799899" y="386.527377" style="fill-opacity: 0.45"/>
     <use xlink:href="#m6397f3d61c" x="539.50517" y="178.576872" style="fill-opacity: 0.45"/>
     <use xlink:href="#m6397f3d61c" x="547.018742" y="218.825357" style="fill-opacity: 0.45"/>
    </g>
   </g>
   <g id="PathCollection_4">
    <g clip-path="url(#peb95afe329)">
     <use xlink:href="#m6397f3d61c" x="747.163333" y="57.831417" style="fill-opacity: 0.45"/>
     <use xlink:href="#m6397f3d61c" x="722.554618" y="332.86273" style="fill-opacity: 0.45"/>
     <use xlink:href="#m6397f3d61c" x="727.768758" y="252.365761" style="fill-opacity: 0.45"/>
     <use xlink:href="#m6397f3d61c" x="749.907939" y="205.409195" style="fill-opacity: 0.45"/>
     <use xlink:href="#m6397f3d61c" x="719.239802" y="245.65768" style="fill-opacity: 0.45"/>
     <use xlink:href="#m6397f3d61c" x="753.111952" y="259.073842" style="fill-opacity: 0.45"/>
     <use xlink:href="#m6397f3d61c" x="736.219174" y="386.527377" style="fill-opacity: 0.45"/>
     <use xlink:href="#m6397f3d61c" x="753.36887" y="292.614246" style="fill-opacity: 0.45"/>
     <use xlink:href="#m6397f3d61c" x="738.098864" y="352.986973" style="fill-opacity: 0.45"/>
     <use xlink:href="#m6397f3d61c" x="732.250926" y="319.446569" style="fill-opacity: 0.45"/>
     <use xlink:href="#m6397f3d61c" x="740.899508" y="151.744549" style="fill-opacity: 0.45"/>
     <use xlink:href="#m6397f3d61c" x="716.588756" y="205.409195" style="fill-opacity: 0.45"/>
     <use xlink:href="#m6397f3d61c" x="728.320134" y="259.073842" style="fill-opacity: 0.45"/>
     <use xlink:href="#m6397f3d61c" x="744.393079" y="225.533437" style="fill-opacity: 0.45"/>
     <use xlink:href="#m6397f3d61c" x="738.76281" y="218.825357" style="fill-opacity: 0.45"/>
     <use xlink:href="#m6397f3d61c" x="750.889254" y="292.614246" style="fill-opacity: 0.45"/>
     <use xlink:href="#m6397f3d61c" x="717.881792" y="191.993033" style="fill-opacity: 0.45"/>
     <use xlink:href="#m6397f3d61c" x="748.324865" y="272.490003" style="fill-opacity: 0.45"/>
     <use xlink:href="#m6397f3d61c" x="729.053033" y="346.278892" style="fill-opacity: 0.45"/>
     <use xlink:href="#m6397f3d61c" x="727.579649" y="205.409195" style="fill-opacity: 0.45"/>
     <use xlink:href="#m6397f3d61c" x="739.268136" y="84.663741" style="fill-opacity: 0.45"/>
     <use xlink:href="#m6397f3d61c" x="743.515513" y="151.744549" style="fill-opacity: 0.45"/>
     <use xlink:href="#m6397f3d61c" x="725.454288" y="279.198084" style="fill-opacity: 0.45"/>
     <use xlink:href="#m6397f3d61c" x="717.999088" y="218.825357" style="fill-opacity: 0.45"/>
     <use xlink:href="#m6397f3d61c" x="742.032204" y="319.446569" style="fill-opacity: 0.45"/>
     <use xlink:href="#m6397f3d61c" x="733.60027" y="145.036468" style="fill-opacity: 0.45"/>
     <use xlink:href="#m6397f3d61c" x="726.283557" y="165.16071" style="fill-opacity: 0.45"/>
     <use xlink:href="#m6397f3d61c" x="746.702116" y="238.949599" style="fill-opacity: 0.45"/>
     <use xlink:href="#m6397f3d61c" x="741.142328" y="185.284953" style="fill-opacity: 0.45"/>
     <use xlink:href="#m6397f3d61c" x="754.678518" y="245.65768" style="fill-opacity: 0.45"/>
     <use xlink:href="#m6397f3d61c" x="738.630261" y="238.949599" style="fill-opacity: 0.45"/>
     <use xlink:href="#m6397f3d61c" x="725.758836" y="205.409195" style="fill-opacity: 0.45"/>
     <use xlink:href="#m6397f3d61c" x="749.392958" y="218.825357" style="fill-opacity: 0.45"/>
     <use xlink:href="#m6397f3d61c" x="725.463573" y="252.365761" style="fill-opacity: 0.45"/>
     <use xlink:href="#m6397f3d61c" x="736.290889" y="346.278892" style="fill-opacity: 0.45"/>
     <use xlink:href="#m6397f3d61c" x="749.888124" y="238.949599" style="fill-opacity: 0.45"/>
     <use xlink:href="#m6397f3d61c" x="747.476742" y="259.073842" style="fill-opacity: 0.45"/>
     <use xlink:href="#m6397f3d61c" x="727.565041" y="245.65768" style="fill-opacity: 0.45"/>
     <use xlink:href="#m6397f3d61c" x="725.553465" y="259.073842" style="fill-opacity: 0.45"/>
     <use xlink:href="#m6397f3d61c" x="741.662678" y="386.527377" style="fill-opacity: 0.45"/>
     <use xlink:href="#m6397f3d61c" x="742.3989" y="151.744549" style="fill-opacity: 0.45"/>
     <use xlink:href="#m6397f3d61c" x="738.134855" y="339.570811" style="fill-opacity: 0.45"/>
     <use xlink:href="#m6397f3d61c" x="720.539615" y="218.825357" style="fill-opacity: 0.45"/>
     <use xlink:href="#m6397f3d61c" x="725.736597" y="359.695054" style="fill-opacity: 0.45"/>
     <use xlink:href="#m6397f3d61c" x="731.805856" y="265.781922" style="fill-opacity: 0.45"/>
    </g>
   </g>
   <g id="text_13">
    <!-- Distribuição da pontuação total por turma/período -->
    <g style="fill: #262626" transform="translate(231.013125 20.303437) scale(0.18 -0.18)">
     <defs>
      <path id="Arial-BoldMT-44" d="M 463 4581 
L 2153 4581 
Q 2725 4581 3025 4494 
Q 3428 4375 3715 4072 
Q 4003 3769 4153 3330 
Q 4303 2891 4303 2247 
Q 4303 1681 4163 1272 
Q 3991 772 3672 463 
Q 3431 228 3022 97 
Q 2716 0 2203 0 
L 463 0 
L 463 4581 
z
M 1388 3806 
L 1388 772 
L 2078 772 
Q 2466 772 2638 816 
Q 2863 872 3011 1006 
Q 3159 1141 3253 1448 
Q 3347 1756 3347 2288 
Q 3347 2819 3253 3103 
Q 3159 3388 2990 3547 
Q 2822 3706 2563 3763 
Q 2369 3806 1803 3806 
L 1388 3806 
z
" transform="scale(0.015625)"/>
      <path id="Arial-BoldMT-69" d="M 459 3769 
L 459 4581 
L 1338 4581 
L 1338 3769 
L 459 3769 
z
M 459 0 
L 459 3319 
L 1338 3319 
L 1338 0 
L 459 0 
z
" transform="scale(0.015625)"/>
      <path id="Arial-BoldMT-73" d="M 150 947 
L 1031 1081 
Q 1088 825 1259 692 
Q 1431 559 1741 559 
Q 2081 559 2253 684 
Q 2369 772 2369 919 
Q 2369 1019 2306 1084 
Q 2241 1147 2013 1200 
Q 950 1434 666 1628 
Q 272 1897 272 2375 
Q 272 2806 612 3100 
Q 953 3394 1669 3394 
Q 2350 3394 2681 3172 
Q 3013 2950 3138 2516 
L 2309 2363 
Q 2256 2556 2107 2659 
Q 1959 2763 1684 2763 
Q 1338 2763 1188 2666 
Q 1088 2597 1088 2488 
Q 1088 2394 1175 2328 
Q 1294 2241 1995 2081 
Q 2697 1922 2975 1691 
Q 3250 1456 3250 1038 
Q 3250 581 2869 253 
Q 2488 -75 1741 -75 
Q 1063 -75 667 200 
Q 272 475 150 947 
z
" transform="scale(0.015625)"/>
      <path id="Arial-BoldMT-74" d="M 1981 3319 
L 1981 2619 
L 1381 2619 
L 1381 1281 
Q 1381 875 1398 808 
Q 1416 741 1477 697 
Q 1538 653 1625 653 
Q 1747 653 1978 738 
L 2053 56 
Q 1747 -75 1359 -75 
Q 1122 -75 931 4 
Q 741 84 652 211 
Q 563 338 528 553 
Q 500 706 500 1172 
L 500 2619 
L 97 2619 
L 97 3319 
L 500 3319 
L 500 3978 
L 1381 4491 
L 1381 3319 
L 1981 3319 
z
" transform="scale(0.015625)"/>
      <path id="Arial-BoldMT-72" d="M 1300 0 
L 422 0 
L 422 3319 
L 1238 3319 
L 1238 2847 
Q 1447 3181 1614 3287 
Q 1781 3394 1994 3394 
Q 2294 3394 2572 3228 
L 2300 2463 
Q 2078 2606 1888 2606 
Q 1703 2606 1575 2504 
Q 1447 2403 1373 2137 
Q 1300 1872 1300 1025 
L 1300 0 
z
" transform="scale(0.015625)"/>
      <path id="Arial-BoldMT-62" d="M 422 0 
L 422 4581 
L 1300 4581 
L 1300 2931 
Q 1706 3394 2263 3394 
Q 2869 3394 3266 2955 
Q 3663 2516 3663 1694 
Q 3663 844 3258 384 
Q 2853 -75 2275 -75 
Q 1991 -75 1714 67 
Q 1438 209 1238 488 
L 1238 0 
L 422 0 
z
M 1294 1731 
Q 1294 1216 1456 969 
Q 1684 619 2063 619 
Q 2353 619 2558 867 
Q 2763 1116 2763 1650 
Q 2763 2219 2556 2470 
Q 2350 2722 2028 2722 
Q 1713 2722 1503 2476 
Q 1294 2231 1294 1731 
z
" transform="scale(0.015625)"/>
      <path id="Arial-BoldMT-75" d="M 2644 0 
L 2644 497 
Q 2463 231 2167 78 
Q 1872 -75 1544 -75 
Q 1209 -75 943 72 
Q 678 219 559 484 
Q 441 750 441 1219 
L 441 3319 
L 1319 3319 
L 1319 1794 
Q 1319 1094 1367 936 
Q 1416 778 1544 686 
Q 1672 594 1869 594 
Q 2094 594 2272 717 
Q 2450 841 2515 1023 
Q 2581 1206 2581 1919 
L 2581 3319 
L 3459 3319 
L 3459 0 
L 2644 0 
z
" transform="scale(0.015625)"/>
      <path id="Arial-BoldMT-e7" d="M 3353 2338 
L 2488 2181 
Q 2444 2441 2289 2572 
Q 2134 2703 1888 2703 
Q 1559 2703 1364 2476 
Q 1169 2250 1169 1719 
Q 1169 1128 1367 884 
Q 1566 641 1900 641 
Q 2150 641 2309 783 
Q 2469 925 2534 1272 
L 3397 1125 
Q 3263 531 2881 228 
Q 2500 -75 1859 -75 
Q 1131 -75 698 384 
Q 266 844 266 1656 
Q 266 2478 700 2936 
Q 1134 3394 1875 3394 
Q 2481 3394 2839 3133 
Q 3197 2872 3353 2338 
z
M 991 -1259 
L 991 -891 
Q 1313 -925 1581 -925 
Q 1860 -925 1994 -825 
Q 2097 -750 2097 -631 
Q 2097 -525 2000 -447 
Q 1903 -369 1700 -369 
Q 1500 -369 1291 -431 
L 1372 -122 
Q 1616 -38 1897 -38 
Q 2288 -38 2491 -209 
Q 2694 -381 2694 -628 
Q 2694 -903 2469 -1075 
Q 2166 -1309 1600 -1309 
Q 1197 -1309 991 -1259 
z
" transform="scale(0.015625)"/>
      <path id="Arial-BoldMT-e3" d="M 1116 2306 
L 319 2450 
Q 453 2931 781 3162 
Q 1109 3394 1756 3394 
Q 2344 3394 2631 3255 
Q 2919 3116 3036 2902 
Q 3153 2688 3153 2116 
L 3144 1091 
Q 3144 653 3186 445 
Q 3228 238 3344 0 
L 2475 0 
Q 2441 88 2391 259 
Q 2369 338 2359 363 
Q 2134 144 1878 34 
Q 1622 -75 1331 -75 
Q 819 -75 523 203 
Q 228 481 228 906 
Q 228 1188 362 1408 
Q 497 1628 739 1745 
Q 981 1863 1438 1950 
Q 2053 2066 2291 2166 
L 2291 2253 
Q 2291 2506 2166 2614 
Q 2041 2722 1694 2722 
Q 1459 2722 1328 2630 
Q 1197 2538 1116 2306 
z
M 2291 1594 
Q 2122 1538 1756 1459 
Q 1391 1381 1278 1306 
Q 1106 1184 1106 997 
Q 1106 813 1243 678 
Q 1381 544 1594 544 
Q 1831 544 2047 700 
Q 2206 819 2256 991 
Q 2291 1103 2291 1419 
L 2291 1594 
z
M 1107 3766 
L 707 3766 
Q 703 3838 703 3878 
Q 703 4206 862 4382 
Q 1022 4559 1272 4559 
Q 1382 4559 1475 4536 
Q 1569 4513 1817 4402 
Q 2066 4291 2207 4291 
Q 2307 4291 2374 4353 
Q 2441 4416 2460 4563 
L 2866 4563 
Q 2863 4141 2708 3959 
Q 2553 3778 2310 3778 
Q 2203 3778 2100 3800 
Q 2028 3819 1740 3928 
Q 1453 4038 1322 4038 
Q 1222 4038 1166 3977 
Q 1110 3916 1107 3766 
z
" transform="scale(0.015625)"/>
      <path id="Arial-BoldMT-6f" d="M 256 1706 
Q 256 2144 472 2553 
Q 688 2963 1083 3178 
Q 1478 3394 1966 3394 
Q 2719 3394 3200 2905 
Q 3681 2416 3681 1669 
Q 3681 916 3195 420 
Q 2709 -75 1972 -75 
Q 1516 -75 1102 131 
Q 688 338 472 736 
Q 256 1134 256 1706 
z
M 1156 1659 
Q 1156 1166 1390 903 
Q 1625 641 1969 641 
Q 2313 641 2545 903 
Q 2778 1166 2778 1666 
Q 2778 2153 2545 2415 
Q 2313 2678 1969 2678 
Q 1625 2678 1390 2415 
Q 1156 2153 1156 1659 
z
" transform="scale(0.015625)"/>
      <path id="Arial-BoldMT-20" transform="scale(0.015625)"/>
      <path id="Arial-BoldMT-64" d="M 3503 0 
L 2688 0 
L 2688 488 
Q 2484 203 2207 64 
Q 1931 -75 1650 -75 
Q 1078 -75 670 386 
Q 263 847 263 1672 
Q 263 2516 659 2955 
Q 1056 3394 1663 3394 
Q 2219 3394 2625 2931 
L 2625 4581 
L 3503 4581 
L 3503 0 
z
M 1159 1731 
Q 1159 1200 1306 963 
Q 1519 619 1900 619 
Q 2203 619 2415 876 
Q 2628 1134 2628 1647 
Q 2628 2219 2422 2470 
Q 2216 2722 1894 2722 
Q 1581 2722 1370 2473 
Q 1159 2225 1159 1731 
z
" transform="scale(0.015625)"/>
      <path id="Arial-BoldMT-61" d="M 1116 2306 
L 319 2450 
Q 453 2931 781 3162 
Q 1109 3394 1756 3394 
Q 2344 3394 2631 3255 
Q 2919 3116 3036 2902 
Q 3153 2688 3153 2116 
L 3144 1091 
Q 3144 653 3186 445 
Q 3228 238 3344 0 
L 2475 0 
Q 2441 88 2391 259 
Q 2369 338 2359 363 
Q 2134 144 1878 34 
Q 1622 -75 1331 -75 
Q 819 -75 523 203 
Q 228 481 228 906 
Q 228 1188 362 1408 
Q 497 1628 739 1745 
Q 981 1863 1438 1950 
Q 2053 2066 2291 2166 
L 2291 2253 
Q 2291 2506 2166 2614 
Q 2041 2722 1694 2722 
Q 1459 2722 1328 2630 
Q 1197 2538 1116 2306 
z
M 2291 1594 
Q 2122 1538 1756 1459 
Q 1391 1381 1278 1306 
Q 1106 1184 1106 997 
Q 1106 813 1243 678 
Q 1381 544 1594 544 
Q 1831 544 2047 700 
Q 2206 819 2256 991 
Q 2291 1103 2291 1419 
L 2291 1594 
z
" transform="scale(0.015625)"/>
      <path id="Arial-BoldMT-70" d="M 434 3319 
L 1253 3319 
L 1253 2831 
Q 1413 3081 1684 3237 
Q 1956 3394 2288 3394 
Q 2866 3394 3269 2941 
Q 3672 2488 3672 1678 
Q 3672 847 3265 386 
Q 2859 -75 2281 -75 
Q 2006 -75 1782 34 
Q 1559 144 1313 409 
L 1313 -1263 
L 434 -1263 
L 434 3319 
z
M 1303 1716 
Q 1303 1156 1525 889 
Q 1747 622 2066 622 
Q 2372 622 2575 867 
Q 2778 1113 2778 1672 
Q 2778 2194 2568 2447 
Q 2359 2700 2050 2700 
Q 1728 2700 1515 2451 
Q 1303 2203 1303 1716 
z
" transform="scale(0.015625)"/>
      <path id="Arial-BoldMT-6e" d="M 3478 0 
L 2600 0 
L 2600 1694 
Q 2600 2231 2544 2389 
Q 2488 2547 2361 2634 
Q 2234 2722 2056 2722 
Q 1828 2722 1647 2597 
Q 1466 2472 1398 2265 
Q 1331 2059 1331 1503 
L 1331 0 
L 453 0 
L 453 3319 
L 1269 3319 
L 1269 2831 
Q 1703 3394 2363 3394 
Q 2653 3394 2893 3289 
Q 3134 3184 3257 3021 
Q 3381 2859 3429 2653 
Q 3478 2447 3478 2063 
L 3478 0 
z
" transform="scale(0.015625)"/>
      <path id="Arial-BoldMT-6c" d="M 459 0 
L 459 4581 
L 1338 4581 
L 1338 0 
L 459 0 
z
" transform="scale(0.015625)"/>
      <path id="Arial-BoldMT-6d" d="M 394 3319 
L 1203 3319 
L 1203 2866 
Q 1638 3394 2238 3394 
Q 2556 3394 2790 3262 
Q 3025 3131 3175 2866 
Q 3394 3131 3647 3262 
Q 3900 3394 4188 3394 
Q 4553 3394 4806 3245 
Q 5059 3097 5184 2809 
Q 5275 2597 5275 2122 
L 5275 0 
L 4397 0 
L 4397 1897 
Q 4397 2391 4306 2534 
Q 4184 2722 3931 2722 
Q 3747 2722 3584 2609 
Q 3422 2497 3350 2280 
Q 3278 2063 3278 1594 
L 3278 0 
L 2400 0 
L 2400 1819 
Q 2400 2303 2353 2443 
Q 2306 2584 2207 2653 
Q 2109 2722 1941 2722 
Q 1738 2722 1575 2612 
Q 1413 2503 1342 2297 
Q 1272 2091 1272 1613 
L 1272 0 
L 394 0 
L 394 3319 
z
" transform="scale(0.015625)"/>
      <path id="Arial-BoldMT-2f" d="M -9 -78 
L 1125 4659 
L 1784 4659 
L 638 -78 
L -9 -78 
z
" transform="scale(0.015625)"/>
      <path id="Arial-BoldMT-65" d="M 2381 1056 
L 3256 909 
Q 3088 428 2723 176 
Q 2359 -75 1813 -75 
Q 947 -75 531 491 
Q 203 944 203 1634 
Q 203 2459 634 2926 
Q 1066 3394 1725 3394 
Q 2466 3394 2894 2905 
Q 3322 2416 3303 1406 
L 1103 1406 
Q 1113 1016 1316 798 
Q 1519 581 1822 581 
Q 2028 581 2168 693 
Q 2309 806 2381 1056 
z
M 2431 1944 
Q 2422 2325 2234 2523 
Q 2047 2722 1778 2722 
Q 1491 2722 1303 2513 
Q 1116 2303 1119 1944 
L 2431 1944 
z
" transform="scale(0.015625)"/>
      <path id="Arial-BoldMT-ed" d="M 459 0 
L 459 3319 
L 1338 3319 
L 1338 0 
L 459 0 
z
M 392 3725 
L 824 4659 
L 1808 4659 
L 949 3725 
L 392 3725 
z
" transform="scale(0.015625)"/>
     </defs>
     <use xlink:href="#Arial-BoldMT-44"/>
     <use xlink:href="#Arial-BoldMT-69" x="72.216797"/>
     <use xlink:href="#Arial-BoldMT-73" x="100"/>
     <use xlink:href="#Arial-BoldMT-74" x="155.615234"/>
     <use xlink:href="#Arial-BoldMT-72" x="188.916016"/>
     <use xlink:href="#Arial-BoldMT-69" x="227.832031"/>
     <use xlink:href="#Arial-BoldMT-62" x="255.615234"/>
     <use xlink:href="#Arial-BoldMT-75" x="316.699219"/>
     <use xlink:href="#Arial-BoldMT-69" x="377.783203"/>
     <use xlink:href="#Arial-BoldMT-e7" x="405.566406"/>
     <use xlink:href="#Arial-BoldMT-e3" x="461.181641"/>
     <use xlink:href="#Arial-BoldMT-6f" x="516.796875"/>
     <use xlink:href="#Arial-BoldMT-20" x="577.880859"/>
     <use xlink:href="#Arial-BoldMT-64" x="605.664062"/>
     <use xlink:href="#Arial-BoldMT-61" x="666.748047"/>
     <use xlink:href="#Arial-BoldMT-20" x="722.363281"/>
     <use xlink:href="#Arial-BoldMT-70" x="750.146484"/>
     <use xlink:href="#Arial-BoldMT-6f" x="811.230469"/>
     <use xlink:href="#Arial-BoldMT-6e" x="872.314453"/>
     <use xlink:href="#Arial-BoldMT-74" x="933.398438"/>
     <use xlink:href="#Arial-BoldMT-75" x="966.699219"/>
     <use xlink:href="#Arial-BoldMT-61" x="1027.783203"/>
     <use xlink:href="#Arial-BoldMT-e7" x="1083.398438"/>
     <use xlink:href="#Arial-BoldMT-e3" x="1139.013672"/>
     <use xlink:href="#Arial-BoldMT-6f" x="1194.628906"/>
     <use xlink:href="#Arial-BoldMT-20" x="1255.712891"/>
     <use xlink:href="#Arial-BoldMT-74" x="1283.496094"/>
     <use xlink:href="#Arial-BoldMT-6f" x="1316.796875"/>
     <use xlink:href="#Arial-BoldMT-74" x="1377.880859"/>
     <use xlink:href="#Arial-BoldMT-61" x="1411.181641"/>
     <use xlink:href="#Arial-BoldMT-6c" x="1466.796875"/>
     <use xlink:href="#Arial-BoldMT-20" x="1494.580078"/>
     <use xlink:href="#Arial-BoldMT-70" x="1522.363281"/>
     <use xlink:href="#Arial-BoldMT-6f" x="1583.447266"/>
     <use xlink:href="#Arial-BoldMT-72" x="1644.53125"/>
     <use xlink:href="#Arial-BoldMT-20" x="1683.447266"/>
     <use xlink:href="#Arial-BoldMT-74" x="1711.230469"/>
     <use xlink:href="#Arial-BoldMT-75" x="1744.53125"/>
     <use xlink:href="#Arial-BoldMT-72" x="1805.615234"/>
     <use xlink:href="#Arial-BoldMT-6d" x="1844.53125"/>
     <use xlink:href="#Arial-BoldMT-61" x="1933.447266"/>
     <use xlink:href="#Arial-BoldMT-2f" x="1989.0625"/>
     <use xlink:href="#Arial-BoldMT-70" x="2016.845703"/>
     <use xlink:href="#Arial-BoldMT-65" x="2077.929688"/>
     <use xlink:href="#Arial-BoldMT-72" x="2133.544922"/>
     <use xlink:href="#Arial-BoldMT-ed" x="2172.460938"/>
     <use xlink:href="#Arial-BoldMT-6f" x="2200.244141"/>
     <use xlink:href="#Arial-BoldMT-64" x="2261.328125"/>
     <use xlink:href="#Arial-BoldMT-6f" x="2322.412109"/>
    </g>
   </g>
  </g>
 </g>
 <defs>
  <clipPath id="peb95afe329">
   <rect x="58.512656" y="26.303437" width="774" height="398.46"/>
  </clipPath>
 </defs>
</svg>
