<?xml version="1.0" encoding="utf-8" standalone="no"?>
<!DOCTYPE svg PUBLIC "-//W3C//DTD SVG 1.1//EN"
  "http://www.w3.org/Graphics/SVG/1.1/DTD/svg11.dtd">
<svg xmlns:xlink="http://www.w3.org/1999/xlink" width="638.72375pt" height="566.497187pt" viewBox="0 0 638.72375 566.497187" xmlns="http://www.w3.org/2000/svg" version="1.1">
 <metadata>
  <rdf:RDF xmlns:dc="http://purl.org/dc/elements/1.1/" xmlns:cc="http://creativecommons.org/ns#" xmlns:rdf="http://www.w3.org/1999/02/22-rdf-syntax-ns#">
   <cc:Work>
    <dc:type rdf:resource="http://purl.org/dc/dcmitype/StillImage"/>
    <dc:date>2026-05-28T20:36:03.490417</dc:date>
    <dc:format>image/svg+xml</dc:format>
    <dc:creator>
     <cc:Agent>
      <dc:title>Matplotlib v3.9.2, https://matplotlib.org/</dc:title>
     </cc:Agent>
    </dc:creator>
   </cc:Work>
  </rdf:RDF>
 </metadata>
 <defs>
  <style type="text/css">*{stroke-linejoin: round; stroke-linecap: butt}</style>
 </defs>
 <g id="figure_1">
  <g id="patch_1">
   <path d="M 0 566.497187 
L 638.72375 566.497187 
L 638.72375 0 
L 0 0 
z
" style="fill: #ffffff"/>
  </g>
  <g id="axes_1">
   <g id="patch_2">
    <path d="M 45.52375 526.0375 
L 631.52375 526.0375 
L 631.52375 25.3575 
L 45.52375 25.3575 
z
" style="fill: #ffffff"/>
   </g>
   <g id="PathCollection_1">
    <defs>
     <path id="m71a1e72a72" d="M 0 3.354102 
C 0.889518 3.354102 1.742724 3.000693 2.371708 2.371708 
C 3.000693 1.742724 3.354102 0.889518 3.354102 0 
C 3.354102 -0.889518 3.000693 -1.742724 2.371708 -2.371708 
C 1.742724 -3.000693 0.889518 -3.354102 0 -3.354102 
C -0.889518 -3.354102 -1.742724 -3.000693 -2.371708 -2.371708 
C -3.000693 -1.742724 -3.354102 -0.889518 -3.354102 0 
C -3.354102 0.889518 -3.000693 1.742724 -2.371708 2.371708 
C -1.742724 3.000693 -0.889518 3.354102 0 3.354102 
z
" style="stroke: #000000; stroke-opacity: 0.9"/>
    </defs>
    <g clip-path="url(#p3db3b06e7f)">
     <use xlink:href="#m71a1e72a72" x="385.535172" y="399.250764" style="fill-opacity: 0.9; stroke: #000000; stroke-opacity: 0.9"/>
     <use xlink:href="#m71a1e72a72" x="274.608536" y="323.518701" style="fill-opacity: 0.9; stroke: #000000; stroke-opacity: 0.9"/>
     <use xlink:href="#m71a1e72a72" x="184.847142" y="381.87569" style="fill-opacity: 0.9; stroke: #000000; stroke-opacity: 0.9"/>
     <use xlink:href="#m71a1e72a72" x="254.953566" y="426.574297" style="fill-opacity: 0.9; stroke: #000000; stroke-opacity: 0.9"/>
     <use xlink:href="#m71a1e72a72" x="339.98719" y="364.491778" style="fill-opacity: 0.9; stroke: #000000; stroke-opacity: 0.9"/>
     <use xlink:href="#m71a1e72a72" x="280.562628" y="400.150732" style="fill-opacity: 0.9; stroke: #000000; stroke-opacity: 0.9"/>
     <use xlink:href="#m71a1e72a72" x="377.223518" y="281.081354" style="fill-opacity: 0.9; stroke: #000000; stroke-opacity: 0.9"/>
     <use xlink:href="#m71a1e72a72" x="337.291978" y="389.191803" style="fill-opacity: 0.9; stroke: #000000; stroke-opacity: 0.9"/>
     <use xlink:href="#m71a1e72a72" x="411.938403" y="402.523855" style="fill-opacity: 0.9; stroke: #000000; stroke-opacity: 0.9"/>
     <use xlink:href="#m71a1e72a72" x="425.864553" y="341.800695" style="fill-opacity: 0.9; stroke: #000000; stroke-opacity: 0.9"/>
     <use xlink:href="#m71a1e72a72" x="280.429554" y="48.115682" style="fill-opacity: 0.9; stroke: #000000; stroke-opacity: 0.9"/>
     <use xlink:href="#m71a1e72a72" x="172.874054" y="303.66615" style="fill-opacity: 0.9; stroke: #000000; stroke-opacity: 0.9"/>
     <use xlink:href="#m71a1e72a72" x="272.002659" y="344.064378" style="fill-opacity: 0.9; stroke: #000000; stroke-opacity: 0.9"/>
     <use xlink:href="#m71a1e72a72" x="297.950762" y="391.102411" style="fill-opacity: 0.9; stroke: #000000; stroke-opacity: 0.9"/>
     <use xlink:href="#m71a1e72a72" x="396.724803" y="439.297632" style="fill-opacity: 0.9; stroke: #000000; stroke-opacity: 0.9"/>
     <use xlink:href="#m71a1e72a72" x="269.44513" y="417.509294" style="fill-opacity: 0.9; stroke: #000000; stroke-opacity: 0.9"/>
     <use xlink:href="#m71a1e72a72" x="265.76317" y="450.213153" style="fill-opacity: 0.9; stroke: #000000; stroke-opacity: 0.9"/>
     <use xlink:href="#m71a1e72a72" x="427.385568" y="270.996002" style="fill-opacity: 0.9; stroke: #000000; stroke-opacity: 0.9"/>
     <use xlink:href="#m71a1e72a72" x="425.083201" y="415.658271" style="fill-opacity: 0.9; stroke: #000000; stroke-opacity: 0.9"/>
     <use xlink:href="#m71a1e72a72" x="382.425818" y="410.662144" style="fill-opacity: 0.9; stroke: #000000; stroke-opacity: 0.9"/>
     <use xlink:href="#m71a1e72a72" x="418.468585" y="316.937439" style="fill-opacity: 0.9; stroke: #000000; stroke-opacity: 0.9"/>
     <use xlink:href="#m71a1e72a72" x="344.40655" y="432.562311" style="fill-opacity: 0.9; stroke: #000000; stroke-opacity: 0.9"/>
     <use xlink:href="#m71a1e72a72" x="299.977545" y="444.942974" style="fill-opacity: 0.9; stroke: #000000; stroke-opacity: 0.9"/>
     <use xlink:href="#m71a1e72a72" x="208.317717" y="253.72409" style="fill-opacity: 0.9; stroke: #000000; stroke-opacity: 0.9"/>
     <use xlink:href="#m71a1e72a72" x="113.072468" y="410.749298" style="fill-opacity: 0.9; stroke: #000000; stroke-opacity: 0.9"/>
     <use xlink:href="#m71a1e72a72" x="413.344749" y="401.410074" style="fill-opacity: 0.9; stroke: #000000; stroke-opacity: 0.9"/>
     <use xlink:href="#m71a1e72a72" x="330.395449" y="332.325809" style="fill-opacity: 0.9; stroke: #000000; stroke-opacity: 0.9"/>
     <use xlink:href="#m71a1e72a72" x="375.154716" y="330.989547" style="fill-opacity: 0.9; stroke: #000000; stroke-opacity: 0.9"/>
     <use xlink:href="#m71a1e72a72" x="350.427479" y="363.256608" style="fill-opacity: 0.9; stroke: #000000; stroke-opacity: 0.9"/>
     <use xlink:href="#m71a1e72a72" x="375.981967" y="404.262006" style="fill-opacity: 0.9; stroke: #000000; stroke-opacity: 0.9"/>
     <use xlink:href="#m71a1e72a72" x="473.110286" y="368.329505" style="fill-opacity: 0.9; stroke: #000000; stroke-opacity: 0.9"/>
     <use xlink:href="#m71a1e72a72" x="332.733093" y="227.590571" style="fill-opacity: 0.9; stroke: #000000; stroke-opacity: 0.9"/>
     <use xlink:href="#m71a1e72a72" x="491.868163" y="250.106978" style="fill-opacity: 0.9; stroke: #000000; stroke-opacity: 0.9"/>
     <use xlink:href="#m71a1e72a72" x="527.773284" y="313.047971" style="fill-opacity: 0.9; stroke: #000000; stroke-opacity: 0.9"/>
     <use xlink:href="#m71a1e72a72" x="299.211806" y="321.87294" style="fill-opacity: 0.9; stroke: #000000; stroke-opacity: 0.9"/>
     <use xlink:href="#m71a1e72a72" x="401.606296" y="387.161876" style="fill-opacity: 0.9; stroke: #000000; stroke-opacity: 0.9"/>
     <use xlink:href="#m71a1e72a72" x="301.953171" y="353.720926" style="fill-opacity: 0.9; stroke: #000000; stroke-opacity: 0.9"/>
     <use xlink:href="#m71a1e72a72" x="392.850744" y="280.943807" style="fill-opacity: 0.9; stroke: #000000; stroke-opacity: 0.9"/>
     <use xlink:href="#m71a1e72a72" x="230.196215" y="297.687171" style="fill-opacity: 0.9; stroke: #000000; stroke-opacity: 0.9"/>
     <use xlink:href="#m71a1e72a72" x="513.926976" y="334.87834" style="fill-opacity: 0.9; stroke: #000000; stroke-opacity: 0.9"/>
     <use xlink:href="#m71a1e72a72" x="401.471617" y="426.249192" style="fill-opacity: 0.9; stroke: #000000; stroke-opacity: 0.9"/>
     <use xlink:href="#m71a1e72a72" x="355.731377" y="410.174279" style="fill-opacity: 0.9; stroke: #000000; stroke-opacity: 0.9"/>
     <use xlink:href="#m71a1e72a72" x="218.742485" y="333.74751" style="fill-opacity: 0.9; stroke: #000000; stroke-opacity: 0.9"/>
    </g>
   </g>
   <g id="patch_3">
    <path d="M 339.07779 203.623752 
C 290.319543 204.135882 243.682288 220.413906 209.43734 248.872777 
C 175.192391 277.331649 156.135696 315.647828 156.464272 355.382621 
C 156.792847 395.117413 176.479866 433.02665 211.189491 460.76126 
C 245.899115 488.495871 292.797459 503.791448 341.555705 503.279318 
C 390.313952 502.767188 436.951207 486.489165 471.196156 458.030293 
C 505.441104 429.571421 524.497799 391.255242 524.169223 351.52045 
C 523.840648 311.785657 504.153629 273.876421 469.444004 246.14181 
C 434.73438 218.407199 387.836036 203.111622 339.07779 203.623752 
L 339.07779 203.623752 
z
" clip-path="url(#p3db3b06e7f)" style="fill: none; stroke-dasharray: 6.66,2.88; stroke-dashoffset: 0; stroke: #000000; stroke-width: 1.8; stroke-linejoin: miter"/>
   </g>
   <g id="patch_4">
    <path d="M 340.316748 353.451535 
L 334.338606 352.717749 
L 335.118526 350.802336 
L 321.227079 343.617734 
L 321.253517 343.552804 
L 335.144964 350.737407 
L 335.924883 348.821994 
z
" clip-path="url(#p3db3b06e7f)" style="fill: #000080; stroke: #000080; stroke-width: 2.5; stroke-linejoin: miter"/>
   </g>
   <g id="PathCollection_2">
    <defs>
     <path id="m04afbd65b5" d="M 3.354102 0 
L -3.354102 -3.354102 
L -3.354102 3.354102 
z
" style="stroke: #ff0000; stroke-opacity: 0.9"/>
    </defs>
    <g clip-path="url(#p3db3b06e7f)">
     <use xlink:href="#m04afbd65b5" x="321.240298" y="343.585269" style="fill: #ff0000; fill-opacity: 0.9; stroke: #ff0000; stroke-opacity: 0.9"/>
     <use xlink:href="#m04afbd65b5" x="464.997023" y="392.455185" style="fill: #ff0000; fill-opacity: 0.9; stroke: #ff0000; stroke-opacity: 0.9"/>
     <use xlink:href="#m04afbd65b5" x="156.584371" y="352.598109" style="fill: #ff0000; fill-opacity: 0.9; stroke: #ff0000; stroke-opacity: 0.9"/>
     <use xlink:href="#m04afbd65b5" x="604.887386" y="280.43704" style="fill: #ff0000; fill-opacity: 0.9; stroke: #ff0000; stroke-opacity: 0.9"/>
     <use xlink:href="#m04afbd65b5" x="321.240298" y="343.585269" style="fill: #ff0000; fill-opacity: 0.9; stroke: #ff0000; stroke-opacity: 0.9"/>
     <use xlink:href="#m04afbd65b5" x="233.947305" y="234.556536" style="fill: #ff0000; fill-opacity: 0.9; stroke: #ff0000; stroke-opacity: 0.9"/>
     <use xlink:href="#m04afbd65b5" x="321.240298" y="343.585269" style="fill: #ff0000; fill-opacity: 0.9; stroke: #ff0000; stroke-opacity: 0.9"/>
     <use xlink:href="#m04afbd65b5" x="321.240298" y="343.585269" style="fill: #ff0000; fill-opacity: 0.9; stroke: #ff0000; stroke-opacity: 0.9"/>
     <use xlink:href="#m04afbd65b5" x="281.222635" y="445.587118" style="fill: #ff0000; fill-opacity: 0.9; stroke: #ff0000; stroke-opacity: 0.9"/>
     <use xlink:href="#m04afbd65b5" x="400.946289" y="341.72549" style="fill: #ff0000; fill-opacity: 0.9; stroke: #ff0000; stroke-opacity: 0.9"/>
     <use xlink:href="#m04afbd65b5" x="415.449082" y="300.846887" style="fill: #ff0000; fill-opacity: 0.9; stroke: #ff0000; stroke-opacity: 0.9"/>
     <use xlink:href="#m04afbd65b5" x="255.775004" y="319.851177" style="fill: #ff0000; fill-opacity: 0.9; stroke: #ff0000; stroke-opacity: 0.9"/>
     <use xlink:href="#m04afbd65b5" x="321.240298" y="343.585269" style="fill: #ff0000; fill-opacity: 0.9; stroke: #ff0000; stroke-opacity: 0.9"/>
     <use xlink:href="#m04afbd65b5" x="321.240298" y="343.585269" style="fill: #ff0000; fill-opacity: 0.9; stroke: #ff0000; stroke-opacity: 0.9"/>
     <use xlink:href="#m04afbd65b5" x="422.015349" y="346.66848" style="fill: #ff0000; fill-opacity: 0.9; stroke: #ff0000; stroke-opacity: 0.9"/>
     <use xlink:href="#m04afbd65b5" x="326.739432" y="160.476499" style="fill: #ff0000; fill-opacity: 0.9; stroke: #ff0000; stroke-opacity: 0.9"/>
     <use xlink:href="#m04afbd65b5" x="466.609664" y="433.007103" style="fill: #ff0000; fill-opacity: 0.9; stroke: #ff0000; stroke-opacity: 0.9"/>
     <use xlink:href="#m04afbd65b5" x="491.244241" y="336.078602" style="fill: #ff0000; fill-opacity: 0.9; stroke: #ff0000; stroke-opacity: 0.9"/>
     <use xlink:href="#m04afbd65b5" x="379.78686" y="387.632018" style="fill: #ff0000; fill-opacity: 0.9; stroke: #ff0000; stroke-opacity: 0.9"/>
     <use xlink:href="#m04afbd65b5" x="477.275001" y="341.8351" style="fill: #ff0000; fill-opacity: 0.9; stroke: #ff0000; stroke-opacity: 0.9"/>
     <use xlink:href="#m04afbd65b5" x="72.160114" y="291.706816" style="fill: #ff0000; fill-opacity: 0.9; stroke: #ff0000; stroke-opacity: 0.9"/>
     <use xlink:href="#m04afbd65b5" x="475.122318" y="389.499048" style="fill: #ff0000; fill-opacity: 0.9; stroke: #ff0000; stroke-opacity: 0.9"/>
     <use xlink:href="#m04afbd65b5" x="321.240298" y="343.585269" style="fill: #ff0000; fill-opacity: 0.9; stroke: #ff0000; stroke-opacity: 0.9"/>
     <use xlink:href="#m04afbd65b5" x="327.09455" y="334.742509" style="fill: #ff0000; fill-opacity: 0.9; stroke: #ff0000; stroke-opacity: 0.9"/>
     <use xlink:href="#m04afbd65b5" x="505.783637" y="403.260422" style="fill: #ff0000; fill-opacity: 0.9; stroke: #ff0000; stroke-opacity: 0.9"/>
     <use xlink:href="#m04afbd65b5" x="321.240298" y="343.585269" style="fill: #ff0000; fill-opacity: 0.9; stroke: #ff0000; stroke-opacity: 0.9"/>
     <use xlink:href="#m04afbd65b5" x="373.771347" y="245.128541" style="fill: #ff0000; fill-opacity: 0.9; stroke: #ff0000; stroke-opacity: 0.9"/>
     <use xlink:href="#m04afbd65b5" x="321.240298" y="343.585269" style="fill: #ff0000; fill-opacity: 0.9; stroke: #ff0000; stroke-opacity: 0.9"/>
     <use xlink:href="#m04afbd65b5" x="437.324577" y="256.977762" style="fill: #ff0000; fill-opacity: 0.9; stroke: #ff0000; stroke-opacity: 0.9"/>
     <use xlink:href="#m04afbd65b5" x="322.140924" y="329.472835" style="fill: #ff0000; fill-opacity: 0.9; stroke: #ff0000; stroke-opacity: 0.9"/>
     <use xlink:href="#m04afbd65b5" x="565.129578" y="363.289801" style="fill: #ff0000; fill-opacity: 0.9; stroke: #ff0000; stroke-opacity: 0.9"/>
     <use xlink:href="#m04afbd65b5" x="491.67258" y="199.975262" style="fill: #ff0000; fill-opacity: 0.9; stroke: #ff0000; stroke-opacity: 0.9"/>
     <use xlink:href="#m04afbd65b5" x="598.279617" y="315.016617" style="fill: #ff0000; fill-opacity: 0.9; stroke: #ff0000; stroke-opacity: 0.9"/>
     <use xlink:href="#m04afbd65b5" x="191.863082" y="390.330934" style="fill: #ff0000; fill-opacity: 0.9; stroke: #ff0000; stroke-opacity: 0.9"/>
     <use xlink:href="#m04afbd65b5" x="321.240298" y="343.585269" style="fill: #ff0000; fill-opacity: 0.9; stroke: #ff0000; stroke-opacity: 0.9"/>
     <use xlink:href="#m04afbd65b5" x="342.832961" y="405.840019" style="fill: #ff0000; fill-opacity: 0.9; stroke: #ff0000; stroke-opacity: 0.9"/>
     <use xlink:href="#m04afbd65b5" x="339.618392" y="316.270166" style="fill: #ff0000; fill-opacity: 0.9; stroke: #ff0000; stroke-opacity: 0.9"/>
     <use xlink:href="#m04afbd65b5" x="321.240298" y="343.585269" style="fill: #ff0000; fill-opacity: 0.9; stroke: #ff0000; stroke-opacity: 0.9"/>
     <use xlink:href="#m04afbd65b5" x="500.749098" y="278.168121" style="fill: #ff0000; fill-opacity: 0.9; stroke: #ff0000; stroke-opacity: 0.9"/>
     <use xlink:href="#m04afbd65b5" x="314.414177" y="316.912764" style="fill: #ff0000; fill-opacity: 0.9; stroke: #ff0000; stroke-opacity: 0.9"/>
     <use xlink:href="#m04afbd65b5" x="119.557822" y="336.748265" style="fill: #ff0000; fill-opacity: 0.9; stroke: #ff0000; stroke-opacity: 0.9"/>
    </g>
   </g>
   <g id="patch_5">
    <path d="M 362.328154 218.792182 
C 299.301199 219.362735 238.932458 231.875637 194.517446 253.575064 
C 150.102434 275.274491 125.267439 304.388782 125.482081 334.505853 
C 125.696723 364.622923 150.943478 393.283847 195.66204 414.176389 
C 240.380603 435.068932 300.9199 446.487308 363.946855 445.916754 
C 426.97381 445.3462 487.342551 432.833299 531.757564 411.133872 
C 576.172576 389.434445 601.007571 360.320154 600.792928 330.203083 
C 600.578286 300.086013 575.331531 271.425089 530.612969 250.532547 
C 485.894407 229.640004 425.355109 218.221628 362.328154 218.792182 
L 362.328154 218.792182 
z
" clip-path="url(#p3db3b06e7f)" style="fill: none; stroke-dasharray: 6.66,2.88; stroke-dashoffset: 0; stroke: #ff0000; stroke-width: 1.8; stroke-linejoin: miter"/>
   </g>
   <g id="patch_6">
    <path d="M 363.137505 332.354468 
L 358.027446 335.927226 
L 357.594763 333.87695 
L 321.247632 343.620019 
L 321.232964 343.550519 
L 357.580095 333.807449 
L 357.147412 331.757173 
z
" clip-path="url(#p3db3b06e7f)" style="fill: #000080; stroke: #000080; stroke-width: 2.5; stroke-linejoin: miter"/>
   </g>
   <g id="PathCollection_3">
    <defs>
     <path id="meeaa382ac9" d="M -3.354102 3.354102 
L 3.354102 3.354102 
L 3.354102 -3.354102 
L -3.354102 -3.354102 
z
" style="stroke: #0000ff; stroke-opacity: 0.9"/>
    </defs>
    <g clip-path="url(#p3db3b06e7f)">
     <use xlink:href="#meeaa382ac9" x="270.233487" y="267.210371" style="fill: #0000ff; fill-opacity: 0.9; stroke: #0000ff; stroke-opacity: 0.9"/>
     <use xlink:href="#meeaa382ac9" x="402.313581" y="326.782082" style="fill: #0000ff; fill-opacity: 0.9; stroke: #0000ff; stroke-opacity: 0.9"/>
     <use xlink:href="#meeaa382ac9" x="320.76766" y="374.162419" style="fill: #0000ff; fill-opacity: 0.9; stroke: #0000ff; stroke-opacity: 0.9"/>
     <use xlink:href="#meeaa382ac9" x="323.999947" y="378.82491" style="fill: #0000ff; fill-opacity: 0.9; stroke: #0000ff; stroke-opacity: 0.9"/>
     <use xlink:href="#meeaa382ac9" x="321.240298" y="343.585269" style="fill: #0000ff; fill-opacity: 0.9; stroke: #0000ff; stroke-opacity: 0.9"/>
     <use xlink:href="#meeaa382ac9" x="199.302103" y="264.750263" style="fill: #0000ff; fill-opacity: 0.9; stroke: #0000ff; stroke-opacity: 0.9"/>
     <use xlink:href="#meeaa382ac9" x="340.764159" y="455.748212" style="fill: #0000ff; fill-opacity: 0.9; stroke: #0000ff; stroke-opacity: 0.9"/>
     <use xlink:href="#meeaa382ac9" x="251.788671" y="458.037075" style="fill: #0000ff; fill-opacity: 0.9; stroke: #0000ff; stroke-opacity: 0.9"/>
     <use xlink:href="#meeaa382ac9" x="326.920301" y="383.347783" style="fill: #0000ff; fill-opacity: 0.9; stroke: #0000ff; stroke-opacity: 0.9"/>
     <use xlink:href="#meeaa382ac9" x="321.240298" y="343.585269" style="fill: #0000ff; fill-opacity: 0.9; stroke: #0000ff; stroke-opacity: 0.9"/>
     <use xlink:href="#meeaa382ac9" x="372.58544" y="459.595649" style="fill: #0000ff; fill-opacity: 0.9; stroke: #0000ff; stroke-opacity: 0.9"/>
     <use xlink:href="#meeaa382ac9" x="193.617407" y="315.354191" style="fill: #0000ff; fill-opacity: 0.9; stroke: #0000ff; stroke-opacity: 0.9"/>
     <use xlink:href="#meeaa382ac9" x="288.415274" y="311.206291" style="fill: #0000ff; fill-opacity: 0.9; stroke: #0000ff; stroke-opacity: 0.9"/>
     <use xlink:href="#meeaa382ac9" x="348.874417" y="343.790326" style="fill: #0000ff; fill-opacity: 0.9; stroke: #0000ff; stroke-opacity: 0.9"/>
     <use xlink:href="#meeaa382ac9" x="321.240298" y="343.585269" style="fill: #0000ff; fill-opacity: 0.9; stroke: #0000ff; stroke-opacity: 0.9"/>
     <use xlink:href="#meeaa382ac9" x="151.096637" y="200.387536" style="fill: #0000ff; fill-opacity: 0.9; stroke: #0000ff; stroke-opacity: 0.9"/>
     <use xlink:href="#meeaa382ac9" x="93.973062" y="344.330437" style="fill: #0000ff; fill-opacity: 0.9; stroke: #0000ff; stroke-opacity: 0.9"/>
     <use xlink:href="#meeaa382ac9" x="330.734491" y="405.787406" style="fill: #0000ff; fill-opacity: 0.9; stroke: #0000ff; stroke-opacity: 0.9"/>
     <use xlink:href="#meeaa382ac9" x="271.049508" y="372.296431" style="fill: #0000ff; fill-opacity: 0.9; stroke: #0000ff; stroke-opacity: 0.9"/>
     <use xlink:href="#meeaa382ac9" x="215.125466" y="496.807436" style="fill: #0000ff; fill-opacity: 0.9; stroke: #0000ff; stroke-opacity: 0.9"/>
     <use xlink:href="#meeaa382ac9" x="320.432139" y="365.185443" style="fill: #0000ff; fill-opacity: 0.9; stroke: #0000ff; stroke-opacity: 0.9"/>
     <use xlink:href="#meeaa382ac9" x="237.467318" y="377.359768" style="fill: #0000ff; fill-opacity: 0.9; stroke: #0000ff; stroke-opacity: 0.9"/>
     <use xlink:href="#meeaa382ac9" x="321.861461" y="277.096875" style="fill: #0000ff; fill-opacity: 0.9; stroke: #0000ff; stroke-opacity: 0.9"/>
     <use xlink:href="#meeaa382ac9" x="285.564603" y="458.319645" style="fill: #0000ff; fill-opacity: 0.9; stroke: #0000ff; stroke-opacity: 0.9"/>
     <use xlink:href="#meeaa382ac9" x="319.280402" y="255.453574" style="fill: #0000ff; fill-opacity: 0.9; stroke: #0000ff; stroke-opacity: 0.9"/>
     <use xlink:href="#meeaa382ac9" x="163.505201" y="390.62271" style="fill: #0000ff; fill-opacity: 0.9; stroke: #0000ff; stroke-opacity: 0.9"/>
     <use xlink:href="#meeaa382ac9" x="352.177766" y="247.142828" style="fill: #0000ff; fill-opacity: 0.9; stroke: #0000ff; stroke-opacity: 0.9"/>
     <use xlink:href="#meeaa382ac9" x="272.125591" y="360.138249" style="fill: #0000ff; fill-opacity: 0.9; stroke: #0000ff; stroke-opacity: 0.9"/>
     <use xlink:href="#meeaa382ac9" x="230.754625" y="425.786676" style="fill: #0000ff; fill-opacity: 0.9; stroke: #0000ff; stroke-opacity: 0.9"/>
     <use xlink:href="#meeaa382ac9" x="321.240298" y="343.585269" style="fill: #0000ff; fill-opacity: 0.9; stroke: #0000ff; stroke-opacity: 0.9"/>
     <use xlink:href="#meeaa382ac9" x="321.240298" y="343.585269" style="fill: #0000ff; fill-opacity: 0.9; stroke: #0000ff; stroke-opacity: 0.9"/>
     <use xlink:href="#meeaa382ac9" x="309.887248" y="361.251526" style="fill: #0000ff; fill-opacity: 0.9; stroke: #0000ff; stroke-opacity: 0.9"/>
     <use xlink:href="#meeaa382ac9" x="421.965067" y="364.652455" style="fill: #0000ff; fill-opacity: 0.9; stroke: #0000ff; stroke-opacity: 0.9"/>
     <use xlink:href="#meeaa382ac9" x="448.466929" y="402.84081" style="fill: #0000ff; fill-opacity: 0.9; stroke: #0000ff; stroke-opacity: 0.9"/>
     <use xlink:href="#meeaa382ac9" x="250.261844" y="348.846188" style="fill: #0000ff; fill-opacity: 0.9; stroke: #0000ff; stroke-opacity: 0.9"/>
     <use xlink:href="#meeaa382ac9" x="340.95157" y="304.446125" style="fill: #0000ff; fill-opacity: 0.9; stroke: #0000ff; stroke-opacity: 0.9"/>
     <use xlink:href="#meeaa382ac9" x="204.122729" y="328.806066" style="fill: #0000ff; fill-opacity: 0.9; stroke: #0000ff; stroke-opacity: 0.9"/>
     <use xlink:href="#meeaa382ac9" x="96.123295" y="390.897286" style="fill: #0000ff; fill-opacity: 0.9; stroke: #0000ff; stroke-opacity: 0.9"/>
     <use xlink:href="#meeaa382ac9" x="321.240298" y="343.585269" style="fill: #0000ff; fill-opacity: 0.9; stroke: #0000ff; stroke-opacity: 0.9"/>
     <use xlink:href="#meeaa382ac9" x="364.241064" y="484.244607" style="fill: #0000ff; fill-opacity: 0.9; stroke: #0000ff; stroke-opacity: 0.9"/>
     <use xlink:href="#meeaa382ac9" x="234.763326" y="339.642597" style="fill: #0000ff; fill-opacity: 0.9; stroke: #0000ff; stroke-opacity: 0.9"/>
     <use xlink:href="#meeaa382ac9" x="151.010306" y="292.374089" style="fill: #0000ff; fill-opacity: 0.9; stroke: #0000ff; stroke-opacity: 0.9"/>
     <use xlink:href="#meeaa382ac9" x="189.35932" y="304.865908" style="fill: #0000ff; fill-opacity: 0.9; stroke: #0000ff; stroke-opacity: 0.9"/>
     <use xlink:href="#meeaa382ac9" x="321.240298" y="343.585269" style="fill: #0000ff; fill-opacity: 0.9; stroke: #0000ff; stroke-opacity: 0.9"/>
     <use xlink:href="#meeaa382ac9" x="375.009932" y="239.526272" style="fill: #0000ff; fill-opacity: 0.9; stroke: #0000ff; stroke-opacity: 0.9"/>
     <use xlink:href="#meeaa382ac9" x="103.240834" y="316.689411" style="fill: #0000ff; fill-opacity: 0.9; stroke: #0000ff; stroke-opacity: 0.9"/>
     <use xlink:href="#meeaa382ac9" x="411.029722" y="232.776354" style="fill: #0000ff; fill-opacity: 0.9; stroke: #0000ff; stroke-opacity: 0.9"/>
     <use xlink:href="#meeaa382ac9" x="331.580784" y="462.285897" style="fill: #0000ff; fill-opacity: 0.9; stroke: #0000ff; stroke-opacity: 0.9"/>
     <use xlink:href="#meeaa382ac9" x="321.240298" y="343.585269" style="fill: #0000ff; fill-opacity: 0.9; stroke: #0000ff; stroke-opacity: 0.9"/>
     <use xlink:href="#meeaa382ac9" x="321.240298" y="343.585269" style="fill: #0000ff; fill-opacity: 0.9; stroke: #0000ff; stroke-opacity: 0.9"/>
    </g>
   </g>
   <g id="patch_7">
    <path d="M 301.148054 220.263476 
C 257.156444 214.057979 213.42341 221.948336 179.580645 242.196786 
C 145.737879 262.445237 124.548494 293.398586 120.679206 328.239716 
C 116.809918 363.080847 130.576636 398.965135 158.947401 427.989484 
C 187.318167 457.013833 227.976632 476.808531 271.968241 483.014028 
C 315.959851 489.219525 359.692885 481.329168 393.53565 461.080717 
C 427.378416 440.832267 448.567801 409.878918 452.437089 375.037787 
C 456.306377 340.196657 442.539659 304.312368 414.168893 275.28802 
C 385.798128 246.263671 345.139663 226.468972 301.148054 220.263476 
L 301.148054 220.263476 
z
" clip-path="url(#p3db3b06e7f)" style="fill: none; stroke-dasharray: 6.66,2.88; stroke-dashoffset: 0; stroke: #0000ff; stroke-width: 1.8; stroke-linejoin: miter"/>
   </g>
   <g id="patch_8">
    <path d="M 286.558147 351.638752 
L 291.761936 348.242182 
L 292.139285 350.306295 
L 321.233902 343.550284 
L 321.246694 343.620254 
L 292.152077 350.376265 
L 292.529426 352.440379 
z
" clip-path="url(#p3db3b06e7f)" style="fill: #000080; stroke: #000080; stroke-width: 2.5; stroke-linejoin: miter"/>
   </g>
   <g id="PathCollection_4">
    <defs>
     <path id="m06ac771931" d="M 0 -3.354102 
L -3.354102 3.354102 
L 3.354102 3.354102 
z
" style="stroke: #008000; stroke-opacity: 0.9"/>
    </defs>
    <g clip-path="url(#p3db3b06e7f)">
     <use xlink:href="#m06ac771931" x="589.101697" y="315.15571" style="fill: #008000; fill-opacity: 0.9; stroke: #008000; stroke-opacity: 0.9"/>
     <use xlink:href="#m06ac771931" x="190.279389" y="233.058052" style="fill: #008000; fill-opacity: 0.9; stroke: #008000; stroke-opacity: 0.9"/>
     <use xlink:href="#m06ac771931" x="294.613261" y="285.458687" style="fill: #008000; fill-opacity: 0.9; stroke: #008000; stroke-opacity: 0.9"/>
     <use xlink:href="#m06ac771931" x="369.787464" y="289.083642" style="fill: #008000; fill-opacity: 0.9; stroke: #008000; stroke-opacity: 0.9"/>
     <use xlink:href="#m06ac771931" x="316.810274" y="395.627354" style="fill: #008000; fill-opacity: 0.9; stroke: #008000; stroke-opacity: 0.9"/>
     <use xlink:href="#m06ac771931" x="291.518657" y="329.541087" style="fill: #008000; fill-opacity: 0.9; stroke: #008000; stroke-opacity: 0.9"/>
     <use xlink:href="#m06ac771931" x="96.701872" y="339.85863" style="fill: #008000; fill-opacity: 0.9; stroke: #008000; stroke-opacity: 0.9"/>
     <use xlink:href="#m06ac771931" x="224.221439" y="423.540886" style="fill: #008000; fill-opacity: 0.9; stroke: #008000; stroke-opacity: 0.9"/>
     <use xlink:href="#m06ac771931" x="145.385443" y="273.481629" style="fill: #008000; fill-opacity: 0.9; stroke: #008000; stroke-opacity: 0.9"/>
     <use xlink:href="#m06ac771931" x="199.73048" y="334.057513" style="fill: #008000; fill-opacity: 0.9; stroke: #008000; stroke-opacity: 0.9"/>
     <use xlink:href="#m06ac771931" x="435.895255" y="345.06633" style="fill: #008000; fill-opacity: 0.9; stroke: #008000; stroke-opacity: 0.9"/>
     <use xlink:href="#m06ac771931" x="359.03331" y="361.062408" style="fill: #008000; fill-opacity: 0.9; stroke: #008000; stroke-opacity: 0.9"/>
     <use xlink:href="#m06ac771931" x="289.942102" y="420.397178" style="fill: #008000; fill-opacity: 0.9; stroke: #008000; stroke-opacity: 0.9"/>
     <use xlink:href="#m06ac771931" x="321.240298" y="343.585269" style="fill: #008000; fill-opacity: 0.9; stroke: #008000; stroke-opacity: 0.9"/>
     <use xlink:href="#m06ac771931" x="321.240298" y="343.585269" style="fill: #008000; fill-opacity: 0.9; stroke: #008000; stroke-opacity: 0.9"/>
     <use xlink:href="#m06ac771931" x="327.375946" y="316.235257" style="fill: #008000; fill-opacity: 0.9; stroke: #008000; stroke-opacity: 0.9"/>
     <use xlink:href="#m06ac771931" x="321.240298" y="343.585269" style="fill: #008000; fill-opacity: 0.9; stroke: #008000; stroke-opacity: 0.9"/>
     <use xlink:href="#m06ac771931" x="352.432928" y="318.360182" style="fill: #008000; fill-opacity: 0.9; stroke: #008000; stroke-opacity: 0.9"/>
     <use xlink:href="#m06ac771931" x="321.240298" y="343.585269" style="fill: #008000; fill-opacity: 0.9; stroke: #008000; stroke-opacity: 0.9"/>
     <use xlink:href="#m06ac771931" x="222.278536" y="371.944567" style="fill: #008000; fill-opacity: 0.9; stroke: #008000; stroke-opacity: 0.9"/>
     <use xlink:href="#m06ac771931" x="404.556115" y="251.616201" style="fill: #008000; fill-opacity: 0.9; stroke: #008000; stroke-opacity: 0.9"/>
     <use xlink:href="#m06ac771931" x="260.345636" y="426.291223" style="fill: #008000; fill-opacity: 0.9; stroke: #008000; stroke-opacity: 0.9"/>
     <use xlink:href="#m06ac771931" x="321.240298" y="343.585269" style="fill: #008000; fill-opacity: 0.9; stroke: #008000; stroke-opacity: 0.9"/>
     <use xlink:href="#m06ac771931" x="153.651715" y="221.173418" style="fill: #008000; fill-opacity: 0.9; stroke: #008000; stroke-opacity: 0.9"/>
     <use xlink:href="#m06ac771931" x="359.734303" y="349.445209" style="fill: #008000; fill-opacity: 0.9; stroke: #008000; stroke-opacity: 0.9"/>
     <use xlink:href="#m06ac771931" x="548.563399" y="242.267417" style="fill: #008000; fill-opacity: 0.9; stroke: #008000; stroke-opacity: 0.9"/>
     <use xlink:href="#m06ac771931" x="436.141637" y="353.866486" style="fill: #008000; fill-opacity: 0.9; stroke: #008000; stroke-opacity: 0.9"/>
     <use xlink:href="#m06ac771931" x="247.038854" y="383.253309" style="fill: #008000; fill-opacity: 0.9; stroke: #008000; stroke-opacity: 0.9"/>
     <use xlink:href="#m06ac771931" x="338.368061" y="377.033622" style="fill: #008000; fill-opacity: 0.9; stroke: #008000; stroke-opacity: 0.9"/>
     <use xlink:href="#m06ac771931" x="205.232411" y="336.876102" style="fill: #008000; fill-opacity: 0.9; stroke: #008000; stroke-opacity: 0.9"/>
     <use xlink:href="#m06ac771931" x="451.477652" y="356.514166" style="fill: #008000; fill-opacity: 0.9; stroke: #008000; stroke-opacity: 0.9"/>
     <use xlink:href="#m06ac771931" x="429.877293" y="296.793651" style="fill: #008000; fill-opacity: 0.9; stroke: #008000; stroke-opacity: 0.9"/>
     <use xlink:href="#m06ac771931" x="314.819022" y="291.131797" style="fill: #008000; fill-opacity: 0.9; stroke: #008000; stroke-opacity: 0.9"/>
     <use xlink:href="#m06ac771931" x="388.041902" y="367.137407" style="fill: #008000; fill-opacity: 0.9; stroke: #008000; stroke-opacity: 0.9"/>
     <use xlink:href="#m06ac771931" x="298.450718" y="335.752087" style="fill: #008000; fill-opacity: 0.9; stroke: #008000; stroke-opacity: 0.9"/>
     <use xlink:href="#m06ac771931" x="319.373062" y="320.115014" style="fill: #008000; fill-opacity: 0.9; stroke: #008000; stroke-opacity: 0.9"/>
     <use xlink:href="#m06ac771931" x="379.633813" y="210.403961" style="fill: #008000; fill-opacity: 0.9; stroke: #008000; stroke-opacity: 0.9"/>
     <use xlink:href="#m06ac771931" x="342.169987" y="477.982016" style="fill: #008000; fill-opacity: 0.9; stroke: #008000; stroke-opacity: 0.9"/>
     <use xlink:href="#m06ac771931" x="298.126944" y="271.613925" style="fill: #008000; fill-opacity: 0.9; stroke: #008000; stroke-opacity: 0.9"/>
     <use xlink:href="#m06ac771931" x="156.584371" y="352.598109" style="fill: #008000; fill-opacity: 0.9; stroke: #008000; stroke-opacity: 0.9"/>
     <use xlink:href="#m06ac771931" x="321.240298" y="343.585269" style="fill: #008000; fill-opacity: 0.9; stroke: #008000; stroke-opacity: 0.9"/>
     <use xlink:href="#m06ac771931" x="309.728267" y="419.180235" style="fill: #008000; fill-opacity: 0.9; stroke: #008000; stroke-opacity: 0.9"/>
     <use xlink:href="#m06ac771931" x="321.240298" y="343.585269" style="fill: #008000; fill-opacity: 0.9; stroke: #008000; stroke-opacity: 0.9"/>
     <use xlink:href="#m06ac771931" x="269.634383" y="310.993016" style="fill: #008000; fill-opacity: 0.9; stroke: #008000; stroke-opacity: 0.9"/>
     <use xlink:href="#m06ac771931" x="296.337604" y="373.898077" style="fill: #008000; fill-opacity: 0.9; stroke: #008000; stroke-opacity: 0.9"/>
     <use xlink:href="#m06ac771931" x="273.151392" y="365.964042" style="fill: #008000; fill-opacity: 0.9; stroke: #008000; stroke-opacity: 0.9"/>
     <use xlink:href="#m06ac771931" x="101.294963" y="382.671474" style="fill: #008000; fill-opacity: 0.9; stroke: #008000; stroke-opacity: 0.9"/>
     <use xlink:href="#m06ac771931" x="444.785486" y="412.197084" style="fill: #008000; fill-opacity: 0.9; stroke: #008000; stroke-opacity: 0.9"/>
     <use xlink:href="#m06ac771931" x="321.240298" y="343.585269" style="fill: #008000; fill-opacity: 0.9; stroke: #008000; stroke-opacity: 0.9"/>
     <use xlink:href="#m06ac771931" x="159.348712" y="297.471308" style="fill: #008000; fill-opacity: 0.9; stroke: #008000; stroke-opacity: 0.9"/>
     <use xlink:href="#m06ac771931" x="321.240298" y="343.585269" style="fill: #008000; fill-opacity: 0.9; stroke: #008000; stroke-opacity: 0.9"/>
     <use xlink:href="#m06ac771931" x="348.046649" y="293.865452" style="fill: #008000; fill-opacity: 0.9; stroke: #008000; stroke-opacity: 0.9"/>
     <use xlink:href="#m06ac771931" x="321.240298" y="343.585269" style="fill: #008000; fill-opacity: 0.9; stroke: #008000; stroke-opacity: 0.9"/>
     <use xlink:href="#m06ac771931" x="138.903056" y="229.90428" style="fill: #008000; fill-opacity: 0.9; stroke: #008000; stroke-opacity: 0.9"/>
     <use xlink:href="#m06ac771931" x="273.322673" y="434.937151" style="fill: #008000; fill-opacity: 0.9; stroke: #008000; stroke-opacity: 0.9"/>
    </g>
   </g>
   <g id="patch_9">
    <path d="M 307.001852 224.475895 
C 254.233641 224.249923 203.579631 235.881245 166.195779 256.808194 
C 128.811927 277.735144 107.75046 306.24913 107.64992 336.070278 
C 107.549381 365.891425 128.417978 394.58497 165.659645 415.831491 
C 202.901312 437.078013 253.475433 449.142826 306.243643 449.368798 
C 359.011854 449.594769 409.665864 437.963448 447.049716 417.036498 
C 484.433568 396.109548 505.495035 367.595562 505.595575 337.774415 
C 505.696114 307.953267 484.827517 279.259723 447.58585 258.013201 
C 410.344183 236.76668 359.770062 224.701866 307.001852 224.475895 
L 307.001852 224.475895 
z
" clip-path="url(#p3db3b06e7f)" style="fill: none; stroke-dasharray: 6.66,2.88; stroke-dashoffset: 0; stroke: #008000; stroke-width: 1.8; stroke-linejoin: miter"/>
   </g>
   <g id="patch_10">
    <path d="M 306.622747 336.922346 
L 312.624468 337.346192 
L 311.923357 339.299922 
L 321.252181 343.552155 
L 321.228415 343.618383 
L 311.899591 339.36615 
L 311.19848 341.31988 
z
" clip-path="url(#p3db3b06e7f)" style="fill: #000080; stroke: #000080; stroke-width: 2.5; stroke-linejoin: miter"/>
   </g>
   <g id="patch_11">
    <path d="M 403.212362 167.76257 
L 402.646421 171.66424 
L 401.692497 171.099339 
L 321.268355 343.601884 
L 321.212241 343.568654 
L 401.636384 171.066109 
L 400.68246 170.501208 
z
" clip-path="url(#p3db3b06e7f)" style="stroke: #000000; stroke-width: 0.9; stroke-linejoin: miter"/>
   </g>
   <g id="patch_12">
    <path d="M 422.987776 313.879525 
L 420.044434 316.030311 
L 419.774204 314.854644 
L 321.248246 343.619847 
L 321.23235 343.55069 
L 419.758308 314.785487 
L 419.488078 313.60982 
z
" clip-path="url(#p3db3b06e7f)" style="stroke: #000000; stroke-width: 0.9; stroke-linejoin: miter"/>
   </g>
   <g id="patch_13">
    <path d="M 427.367336 306.129339 
L 424.523061 308.443244 
L 424.201028 307.28427 
L 321.24977 343.619356 
L 321.230826 343.551181 
L 424.182085 307.216095 
L 423.860051 306.05712 
z
" clip-path="url(#p3db3b06e7f)" style="stroke: #000000; stroke-width: 0.9; stroke-linejoin: miter"/>
   </g>
   <g id="patch_14">
    <path d="M 418.468347 443.728021 
L 415.263472 442.120701 
L 415.990427 441.224207 
L 321.218917 343.611636 
L 321.261679 343.558901 
L 416.033189 441.171472 
L 416.760143 440.274979 
z
" clip-path="url(#p3db3b06e7f)" style="stroke: #000000; stroke-width: 0.9; stroke-linejoin: miter"/>
   </g>
   <g id="patch_15">
    <path d="M 414.238702 469.108248 
L 411.254269 467.03063 
L 412.08142 466.252226 
L 321.21597 343.608163 
L 321.264626 343.562375 
L 412.130076 466.206437 
L 412.957227 465.428034 
z
" clip-path="url(#p3db3b06e7f)" style="stroke: #000000; stroke-width: 0.9; stroke-linejoin: miter"/>
   </g>
   <g id="matplotlib.axis_1">
    <g id="xtick_1">
     <g id="line2d_1">
      <defs>
       <path id="ma3c7f62355" d="M 0 0 
L 0 3.5 
" style="stroke: #000000; stroke-width: 0.8"/>
      </defs>
      <g>
       <use xlink:href="#ma3c7f62355" x="67.689217" y="526.0375" style="stroke: #000000; stroke-width: 0.8"/>
      </g>
     </g>
     <g id="text_1">
      <!-- −4 -->
      <g transform="translate(60.318123 540.635937) scale(0.1 -0.1)">
       <defs>
        <path id="DejaVuSans-2212" d="M 678 2272 
L 4684 2272 
L 4684 1741 
L 678 1741 
L 678 2272 
z
" transform="scale(0.015625)"/>
        <path id="DejaVuSans-34" d="M 2419 4116 
L 825 1625 
L 2419 1625 
L 2419 4116 
z
M 2253 4666 
L 3047 4666 
L 3047 1625 
L 3713 1625 
L 3713 1100 
L 3047 1100 
L 3047 0 
L 2419 0 
L 2419 1100 
L 313 1100 
L 313 1709 
L 2253 4666 
z
" transform="scale(0.015625)"/>
       </defs>
       <use xlink:href="#DejaVuSans-2212"/>
       <use xlink:href="#DejaVuSans-34" x="83.789062"/>
      </g>
     </g>
    </g>
    <g id="xtick_2">
     <g id="line2d_2">
      <g>
       <use xlink:href="#ma3c7f62355" x="194.464757" y="526.0375" style="stroke: #000000; stroke-width: 0.8"/>
      </g>
     </g>
     <g id="text_2">
      <!-- −2 -->
      <g transform="translate(187.093664 540.635937) scale(0.1 -0.1)">
       <defs>
        <path id="DejaVuSans-32" d="M 1228 531 
L 3431 531 
L 3431 0 
L 469 0 
L 469 531 
Q 828 903 1448 1529 
Q 2069 2156 2228 2338 
Q 2531 2678 2651 2914 
Q 2772 3150 2772 3378 
Q 2772 3750 2511 3984 
Q 2250 4219 1831 4219 
Q 1534 4219 1204 4116 
Q 875 4013 500 3803 
L 500 4441 
Q 881 4594 1212 4672 
Q 1544 4750 1819 4750 
Q 2544 4750 2975 4387 
Q 3406 4025 3406 3419 
Q 3406 3131 3298 2873 
Q 3191 2616 2906 2266 
Q 2828 2175 2409 1742 
Q 1991 1309 1228 531 
z
" transform="scale(0.015625)"/>
       </defs>
       <use xlink:href="#DejaVuSans-2212"/>
       <use xlink:href="#DejaVuSans-32" x="83.789062"/>
      </g>
     </g>
    </g>
    <g id="xtick_3">
     <g id="line2d_3">
      <g>
       <use xlink:href="#ma3c7f62355" x="321.240298" y="526.0375" style="stroke: #000000; stroke-width: 0.8"/>
      </g>
     </g>
     <g id="text_3">
      <!-- 0 -->
      <g transform="translate(318.059048 540.635937) scale(0.1 -0.1)">
       <defs>
        <path id="DejaVuSans-30" d="M 2034 4250 
Q 1547 4250 1301 3770 
Q 1056 3291 1056 2328 
Q 1056 1369 1301 889 
Q 1547 409 2034 409 
Q 2525 409 2770 889 
Q 3016 1369 3016 2328 
Q 3016 3291 2770 3770 
Q 2525 4250 2034 4250 
z
M 2034 4750 
Q 2819 4750 3233 4129 
Q 3647 3509 3647 2328 
Q 3647 1150 3233 529 
Q 2819 -91 2034 -91 
Q 1250 -91 836 529 
Q 422 1150 422 2328 
Q 422 3509 836 4129 
Q 1250 4750 2034 4750 
z
" transform="scale(0.015625)"/>
       </defs>
       <use xlink:href="#DejaVuSans-30"/>
      </g>
     </g>
    </g>
    <g id="xtick_4">
     <g id="line2d_4">
      <g>
       <use xlink:href="#ma3c7f62355" x="448.015839" y="526.0375" style="stroke: #000000; stroke-width: 0.8"/>
      </g>
     </g>
     <g id="text_4">
      <!-- 2 -->
      <g transform="translate(444.834589 540.635937) scale(0.1 -0.1)">
       <use xlink:href="#DejaVuSans-32"/>
      </g>
     </g>
    </g>
    <g id="xtick_5">
     <g id="line2d_5">
      <g>
       <use xlink:href="#ma3c7f62355" x="574.791379" y="526.0375" style="stroke: #000000; stroke-width: 0.8"/>
      </g>
     </g>
     <g id="text_5">
      <!-- 4 -->
      <g transform="translate(571.610129 540.635937) scale(0.1 -0.1)">
       <use xlink:href="#DejaVuSans-34"/>
      </g>
     </g>
    </g>
    <g id="text_6">
     <!-- Dim 1 (51.4%) -->
     <g transform="translate(291.393672 556.593594) scale(0.13 -0.13)">
      <defs>
       <path id="DejaVuSans-44" d="M 1259 4147 
L 1259 519 
L 2022 519 
Q 2988 519 3436 956 
Q 3884 1394 3884 2338 
Q 3884 3275 3436 3711 
Q 2988 4147 2022 4147 
L 1259 4147 
z
M 628 4666 
L 1925 4666 
Q 3281 4666 3915 4102 
Q 4550 3538 4550 2338 
Q 4550 1131 3912 565 
Q 3275 0 1925 0 
L 628 0 
L 628 4666 
z
" transform="scale(0.015625)"/>
       <path id="DejaVuSans-69" d="M 603 3500 
L 1178 3500 
L 1178 0 
L 603 0 
L 603 3500 
z
M 603 4863 
L 1178 4863 
L 1178 4134 
L 603 4134 
L 603 4863 
z
" transform="scale(0.015625)"/>
       <path id="DejaVuSans-6d" d="M 3328 2828 
Q 3544 3216 3844 3400 
Q 4144 3584 4550 3584 
Q 5097 3584 5394 3201 
Q 5691 2819 5691 2113 
L 5691 0 
L 5113 0 
L 5113 2094 
Q 5113 2597 4934 2840 
Q 4756 3084 4391 3084 
Q 3944 3084 3684 2787 
Q 3425 2491 3425 1978 
L 3425 0 
L 2847 0 
L 2847 2094 
Q 2847 2600 2669 2842 
Q 2491 3084 2119 3084 
Q 1678 3084 1418 2786 
Q 1159 2488 1159 1978 
L 1159 0 
L 581 0 
L 581 3500 
L 1159 3500 
L 1159 2956 
Q 1356 3278 1631 3431 
Q 1906 3584 2284 3584 
Q 2666 3584 2933 3390 
Q 3200 3197 3328 2828 
z
" transform="scale(0.015625)"/>
       <path id="DejaVuSans-20" transform="scale(0.015625)"/>
       <path id="DejaVuSans-31" d="M 794 531 
L 1825 531 
L 1825 4091 
L 703 3866 
L 703 4441 
L 1819 4666 
L 2450 4666 
L 2450 531 
L 3481 531 
L 3481 0 
L 794 0 
L 794 531 
z
" transform="scale(0.015625)"/>
       <path id="DejaVuSans-28" d="M 1984 4856 
Q 1566 4138 1362 3434 
Q 1159 2731 1159 2009 
Q 1159 1288 1364 580 
Q 1569 -128 1984 -844 
L 1484 -844 
Q 1016 -109 783 600 
Q 550 1309 550 2009 
Q 550 2706 781 3412 
Q 1013 4119 1484 4856 
L 1984 4856 
z
" transform="scale(0.015625)"/>
       <path id="DejaVuSans-35" d="M 691 4666 
L 3169 4666 
L 3169 4134 
L 1269 4134 
L 1269 2991 
Q 1406 3038 1543 3061 
Q 1681 3084 1819 3084 
Q 2600 3084 3056 2656 
Q 3513 2228 3513 1497 
Q 3513 744 3044 326 
Q 2575 -91 1722 -91 
Q 1428 -91 1123 -41 
Q 819 9 494 109 
L 494 744 
Q 775 591 1075 516 
Q 1375 441 1709 441 
Q 2250 441 2565 725 
Q 2881 1009 2881 1497 
Q 2881 1984 2565 2268 
Q 2250 2553 1709 2553 
Q 1456 2553 1204 2497 
Q 953 2441 691 2322 
L 691 4666 
z
" transform="scale(0.015625)"/>
       <path id="DejaVuSans-2e" d="M 684 794 
L 1344 794 
L 1344 0 
L 684 0 
L 684 794 
z
" transform="scale(0.015625)"/>
       <path id="DejaVuSans-25" d="M 4653 2053 
Q 4381 2053 4226 1822 
Q 4072 1591 4072 1178 
Q 4072 772 4226 539 
Q 4381 306 4653 306 
Q 4919 306 5073 539 
Q 5228 772 5228 1178 
Q 5228 1588 5073 1820 
Q 4919 2053 4653 2053 
z
M 4653 2450 
Q 5147 2450 5437 2106 
Q 5728 1763 5728 1178 
Q 5728 594 5436 251 
Q 5144 -91 4653 -91 
Q 4153 -91 3862 251 
Q 3572 594 3572 1178 
Q 3572 1766 3864 2108 
Q 4156 2450 4653 2450 
z
M 1428 4353 
Q 1159 4353 1004 4120 
Q 850 3888 850 3481 
Q 850 3069 1003 2837 
Q 1156 2606 1428 2606 
Q 1700 2606 1854 2837 
Q 2009 3069 2009 3481 
Q 2009 3884 1853 4118 
Q 1697 4353 1428 4353 
z
M 4250 4750 
L 4750 4750 
L 1831 -91 
L 1331 -91 
L 4250 4750 
z
M 1428 4750 
Q 1922 4750 2215 4408 
Q 2509 4066 2509 3481 
Q 2509 2891 2217 2550 
Q 1925 2209 1428 2209 
Q 931 2209 642 2551 
Q 353 2894 353 3481 
Q 353 4063 643 4406 
Q 934 4750 1428 4750 
z
" transform="scale(0.015625)"/>
       <path id="DejaVuSans-29" d="M 513 4856 
L 1013 4856 
Q 1481 4119 1714 3412 
Q 1947 2706 1947 2009 
Q 1947 1309 1714 600 
Q 1481 -109 1013 -844 
L 513 -844 
Q 928 -128 1133 580 
Q 1338 1288 1338 2009 
Q 1338 2731 1133 3434 
Q 928 4138 513 4856 
z
" transform="scale(0.015625)"/>
      </defs>
      <use xlink:href="#DejaVuSans-44"/>
      <use xlink:href="#DejaVuSans-69" x="77.001953"/>
      <use xlink:href="#DejaVuSans-6d" x="104.785156"/>
      <use xlink:href="#DejaVuSans-20" x="202.197266"/>
      <use xlink:href="#DejaVuSans-31" x="233.984375"/>
      <use xlink:href="#DejaVuSans-20" x="297.607422"/>
      <use xlink:href="#DejaVuSans-28" x="329.394531"/>
      <use xlink:href="#DejaVuSans-35" x="368.408203"/>
      <use xlink:href="#DejaVuSans-31" x="432.03125"/>
      <use xlink:href="#DejaVuSans-2e" x="495.654297"/>
      <use xlink:href="#DejaVuSans-34" x="527.441406"/>
      <use xlink:href="#DejaVuSans-25" x="591.064453"/>
      <use xlink:href="#DejaVuSans-29" x="686.083984"/>
     </g>
    </g>
   </g>
   <g id="matplotlib.axis_2">
    <g id="ytick_1">
     <g id="line2d_6">
      <defs>
       <path id="m46dfb60585" d="M 0 0 
L -3.5 0 
" style="stroke: #000000; stroke-width: 0.8"/>
      </defs>
      <g>
       <use xlink:href="#m46dfb60585" x="45.52375" y="486.464595" style="stroke: #000000; stroke-width: 0.8"/>
      </g>
     </g>
     <g id="text_7">
      <!-- −2 -->
      <g transform="translate(23.781563 490.263814) scale(0.1 -0.1)">
       <use xlink:href="#DejaVuSans-2212"/>
       <use xlink:href="#DejaVuSans-32" x="83.789062"/>
      </g>
     </g>
    </g>
    <g id="ytick_2">
     <g id="line2d_7">
      <g>
       <use xlink:href="#m46dfb60585" x="45.52375" y="415.024932" style="stroke: #000000; stroke-width: 0.8"/>
      </g>
     </g>
     <g id="text_8">
      <!-- −1 -->
      <g transform="translate(23.781563 418.824151) scale(0.1 -0.1)">
       <use xlink:href="#DejaVuSans-2212"/>
       <use xlink:href="#DejaVuSans-31" x="83.789062"/>
      </g>
     </g>
    </g>
    <g id="ytick_3">
     <g id="line2d_8">
      <g>
       <use xlink:href="#m46dfb60585" x="45.52375" y="343.585269" style="stroke: #000000; stroke-width: 0.8"/>
      </g>
     </g>
     <g id="text_9">
      <!-- 0 -->
      <g transform="translate(32.16125 347.384488) scale(0.1 -0.1)">
       <use xlink:href="#DejaVuSans-30"/>
      </g>
     </g>
    </g>
    <g id="ytick_4">
     <g id="line2d_9">
      <g>
       <use xlink:href="#m46dfb60585" x="45.52375" y="272.145606" style="stroke: #000000; stroke-width: 0.8"/>
      </g>
     </g>
     <g id="text_10">
      <!-- 1 -->
      <g transform="translate(32.16125 275.944825) scale(0.1 -0.1)">
       <use xlink:href="#DejaVuSans-31"/>
      </g>
     </g>
    </g>
    <g id="ytick_5">
     <g id="line2d_10">
      <g>
       <use xlink:href="#m46dfb60585" x="45.52375" y="200.705943" style="stroke: #000000; stroke-width: 0.8"/>
      </g>
     </g>
     <g id="text_11">
      <!-- 2 -->
      <g transform="translate(32.16125 204.505162) scale(0.1 -0.1)">
       <use xlink:href="#DejaVuSans-32"/>
      </g>
     </g>
    </g>
    <g id="ytick_6">
     <g id="line2d_11">
      <g>
       <use xlink:href="#m46dfb60585" x="45.52375" y="129.26628" style="stroke: #000000; stroke-width: 0.8"/>
      </g>
     </g>
     <g id="text_12">
      <!-- 3 -->
      <g transform="translate(32.16125 133.065498) scale(0.1 -0.1)">
       <defs>
        <path id="DejaVuSans-33" d="M 2597 2516 
Q 3050 2419 3304 2112 
Q 3559 1806 3559 1356 
Q 3559 666 3084 287 
Q 2609 -91 1734 -91 
Q 1441 -91 1130 -33 
Q 819 25 488 141 
L 488 750 
Q 750 597 1062 519 
Q 1375 441 1716 441 
Q 2309 441 2620 675 
Q 2931 909 2931 1356 
Q 2931 1769 2642 2001 
Q 2353 2234 1838 2234 
L 1294 2234 
L 1294 2753 
L 1863 2753 
Q 2328 2753 2575 2939 
Q 2822 3125 2822 3475 
Q 2822 3834 2567 4026 
Q 2313 4219 1838 4219 
Q 1578 4219 1281 4162 
Q 984 4106 628 3988 
L 628 4550 
Q 988 4650 1302 4700 
Q 1616 4750 1894 4750 
Q 2613 4750 3031 4423 
Q 3450 4097 3450 3541 
Q 3450 3153 3228 2886 
Q 3006 2619 2597 2516 
z
" transform="scale(0.015625)"/>
       </defs>
       <use xlink:href="#DejaVuSans-33"/>
      </g>
     </g>
    </g>
    <g id="ytick_7">
     <g id="line2d_12">
      <g>
       <use xlink:href="#m46dfb60585" x="45.52375" y="57.826617" style="stroke: #000000; stroke-width: 0.8"/>
      </g>
     </g>
     <g id="text_13">
      <!-- 4 -->
      <g transform="translate(32.16125 61.625835) scale(0.1 -0.1)">
       <use xlink:href="#DejaVuSans-34"/>
      </g>
     </g>
    </g>
    <g id="text_14">
     <!-- Dim 2 (15.9%) -->
     <g transform="translate(17.077969 322.827578) rotate(-90) scale(0.13 -0.13)">
      <defs>
       <path id="DejaVuSans-39" d="M 703 97 
L 703 672 
Q 941 559 1184 500 
Q 1428 441 1663 441 
Q 2288 441 2617 861 
Q 2947 1281 2994 2138 
Q 2813 1869 2534 1725 
Q 2256 1581 1919 1581 
Q 1219 1581 811 2004 
Q 403 2428 403 3163 
Q 403 3881 828 4315 
Q 1253 4750 1959 4750 
Q 2769 4750 3195 4129 
Q 3622 3509 3622 2328 
Q 3622 1225 3098 567 
Q 2575 -91 1691 -91 
Q 1453 -91 1209 -44 
Q 966 3 703 97 
z
M 1959 2075 
Q 2384 2075 2632 2365 
Q 2881 2656 2881 3163 
Q 2881 3666 2632 3958 
Q 2384 4250 1959 4250 
Q 1534 4250 1286 3958 
Q 1038 3666 1038 3163 
Q 1038 2656 1286 2365 
Q 1534 2075 1959 2075 
z
" transform="scale(0.015625)"/>
      </defs>
      <use xlink:href="#DejaVuSans-44"/>
      <use xlink:href="#DejaVuSans-69" x="77.001953"/>
      <use xlink:href="#DejaVuSans-6d" x="104.785156"/>
      <use xlink:href="#DejaVuSans-20" x="202.197266"/>
      <use xlink:href="#DejaVuSans-32" x="233.984375"/>
      <use xlink:href="#DejaVuSans-20" x="297.607422"/>
      <use xlink:href="#DejaVuSans-28" x="329.394531"/>
      <use xlink:href="#DejaVuSans-31" x="368.408203"/>
      <use xlink:href="#DejaVuSans-35" x="432.03125"/>
      <use xlink:href="#DejaVuSans-2e" x="495.654297"/>
      <use xlink:href="#DejaVuSans-39" x="527.441406"/>
      <use xlink:href="#DejaVuSans-25" x="591.064453"/>
      <use xlink:href="#DejaVuSans-29" x="686.083984"/>
     </g>
    </g>
   </g>
   <g id="line2d_13">
    <path d="M 45.52375 343.585269 
L 631.52375 343.585269 
" clip-path="url(#p3db3b06e7f)" style="fill: none; stroke-dasharray: 1.8,2.7; stroke-dashoffset: 0; stroke: #000000; stroke-width: 0.9"/>
   </g>
   <g id="line2d_14">
    <path d="M 321.240298 526.0375 
L 321.240298 25.3575 
" clip-path="url(#p3db3b06e7f)" style="fill: none; stroke-dasharray: 1.8,2.7; stroke-dashoffset: 0; stroke: #000000; stroke-width: 0.9"/>
   </g>
   <g id="patch_16">
    <path d="M 45.52375 526.0375 
L 45.52375 25.3575 
" style="fill: none; stroke: #000000; stroke-width: 0.8; stroke-linejoin: miter; stroke-linecap: square"/>
   </g>
   <g id="patch_17">
    <path d="M 631.52375 526.0375 
L 631.52375 25.3575 
" style="fill: none; stroke: #000000; stroke-width: 0.8; stroke-linejoin: miter; stroke-linecap: square"/>
   </g>
   <g id="patch_18">
    <path d="M 45.52375 526.0375 
L 631.52375 526.0375 
" style="fill: none; stroke: #000000; stroke-width: 0.8; stroke-linejoin: miter; stroke-linecap: square"/>
   </g>
   <g id="patch_19">
    <path d="M 45.52375 25.3575 
L 631.52375 25.3575 
" style="fill: none; stroke: #000000; stroke-width: 0.8; stroke-linejoin: miter; stroke-linecap: square"/>
   </g>
   <g id="text_15">
    <!-- 6A -->
    <g style="fill: #000080" transform="translate(341.842863 354.240836) scale(0.15 -0.15)">
     <defs>
      <path id="DejaVuSans-Oblique-36" d="M 2938 1728 
Q 2938 2125 2734 2354 
Q 2531 2584 2181 2584 
Q 1697 2584 1367 2211 
Q 1038 1838 1038 1288 
Q 1038 875 1239 642 
Q 1441 409 1797 409 
Q 2284 409 2611 792 
Q 2938 1175 2938 1728 
z
M 3788 4556 
L 3681 3981 
Q 3500 4100 3265 4162 
Q 3031 4225 2766 4225 
Q 2119 4225 1726 3819 
Q 1334 3413 1141 2547 
Q 1369 2813 1670 2948 
Q 1972 3084 2322 3084 
Q 2894 3084 3233 2754 
Q 3572 2425 3572 1869 
Q 3572 1413 3405 1020 
Q 3238 628 2919 331 
Q 2700 128 2409 18 
Q 2119 -91 1791 -91 
Q 1147 -91 775 318 
Q 403 728 403 1441 
Q 403 2103 573 2717 
Q 744 3331 1050 3781 
Q 1372 4256 1830 4503 
Q 2288 4750 2841 4750 
Q 3084 4750 3321 4701 
Q 3559 4653 3788 4556 
z
" transform="scale(0.015625)"/>
      <path id="DejaVuSans-Oblique-41" d="M 2356 4666 
L 3072 4666 
L 3938 0 
L 3278 0 
L 3084 1197 
L 984 1197 
L 325 0 
L -341 0 
L 2356 4666 
z
M 2584 4044 
L 1275 1722 
L 2988 1722 
L 2584 4044 
z
" transform="scale(0.015625)"/>
     </defs>
     <use xlink:href="#DejaVuSans-Oblique-36"/>
     <use xlink:href="#DejaVuSans-Oblique-41" x="63.623047"/>
    </g>
   </g>
   <g id="text_16">
    <!-- 6B -->
    <g style="fill: #000080" transform="translate(366.489281 331.456004) scale(0.15 -0.15)">
     <defs>
      <path id="DejaVuSans-Oblique-42" d="M 1081 4666 
L 2694 4666 
Q 3350 4666 3675 4422 
Q 4000 4178 4000 3688 
Q 4000 3238 3720 2911 
Q 3441 2584 2988 2516 
Q 3375 2428 3569 2181 
Q 3763 1934 3763 1522 
Q 3763 819 3242 409 
Q 2722 0 1819 0 
L 172 0 
L 1081 4666 
z
M 1234 2228 
L 903 519 
L 1919 519 
Q 2491 519 2800 781 
Q 3109 1044 3109 1522 
Q 3109 1891 2904 2059 
Q 2700 2228 2247 2228 
L 1234 2228 
z
M 1606 4147 
L 1331 2741 
L 2272 2741 
Q 2775 2741 3058 2959 
Q 3341 3178 3341 3566 
Q 3341 3869 3150 4008 
Q 2959 4147 2541 4147 
L 1606 4147 
z
" transform="scale(0.015625)"/>
     </defs>
     <use xlink:href="#DejaVuSans-Oblique-36"/>
     <use xlink:href="#DejaVuSans-Oblique-42" x="63.623047"/>
    </g>
   </g>
   <g id="text_17">
    <!-- 5A -->
    <g style="fill: #000080" transform="translate(283.783575 352.283031) scale(0.15 -0.15)">
     <defs>
      <path id="DejaVuSans-Oblique-35" d="M 3719 4666 
L 3622 4141 
L 1691 4141 
L 1466 2988 
Q 1609 3034 1757 3056 
Q 1906 3078 2059 3078 
Q 2706 3078 3081 2731 
Q 3456 2384 3456 1791 
Q 3456 1375 3264 994 
Q 3072 613 2719 325 
Q 2469 125 2108 17 
Q 1747 -91 1319 -91 
Q 1038 -91 744 -41 
Q 450 9 128 109 
L 244 697 
Q 531 556 820 486 
Q 1109 416 1403 416 
Q 2013 416 2411 781 
Q 2809 1147 2809 1697 
Q 2809 2103 2548 2328 
Q 2288 2553 1819 2553 
Q 1572 2553 1305 2495 
Q 1038 2438 756 2322 
L 1209 4666 
L 3719 4666 
z
" transform="scale(0.015625)"/>
     </defs>
     <use xlink:href="#DejaVuSans-Oblique-35"/>
     <use xlink:href="#DejaVuSans-Oblique-41" x="63.623047"/>
    </g>
   </g>
   <g id="text_18">
    <!-- 5B -->
    <g style="fill: #000080" transform="translate(305.453343 336.389312) scale(0.15 -0.15)">
     <use xlink:href="#DejaVuSans-Oblique-35"/>
     <use xlink:href="#DejaVuSans-Oblique-42" x="63.623047"/>
    </g>
   </g>
   <g id="text_19">
    <!-- CLÍNICA MÉDICA -->
    <g transform="translate(368.591221 156.45613) scale(0.1 -0.1)">
     <defs>
      <path id="DejaVuSans-43" d="M 4122 4306 
L 4122 3641 
Q 3803 3938 3442 4084 
Q 3081 4231 2675 4231 
Q 1875 4231 1450 3742 
Q 1025 3253 1025 2328 
Q 1025 1406 1450 917 
Q 1875 428 2675 428 
Q 3081 428 3442 575 
Q 3803 722 4122 1019 
L 4122 359 
Q 3791 134 3420 21 
Q 3050 -91 2638 -91 
Q 1578 -91 968 557 
Q 359 1206 359 2328 
Q 359 3453 968 4101 
Q 1578 4750 2638 4750 
Q 3056 4750 3426 4639 
Q 3797 4528 4122 4306 
z
" transform="scale(0.015625)"/>
      <path id="DejaVuSans-4c" d="M 628 4666 
L 1259 4666 
L 1259 531 
L 3531 531 
L 3531 0 
L 628 0 
L 628 4666 
z
" transform="scale(0.015625)"/>
      <path id="DejaVuSans-cd" d="M 628 4666 
L 1259 4666 
L 1259 0 
L 628 0 
L 628 4666 
z
M 1116 5921 
L 1694 5921 
L 982 5096 
L 503 5096 
L 1116 5921 
z
" transform="scale(0.015625)"/>
      <path id="DejaVuSans-4e" d="M 628 4666 
L 1478 4666 
L 3547 763 
L 3547 4666 
L 4159 4666 
L 4159 0 
L 3309 0 
L 1241 3903 
L 1241 0 
L 628 0 
L 628 4666 
z
" transform="scale(0.015625)"/>
      <path id="DejaVuSans-49" d="M 628 4666 
L 1259 4666 
L 1259 0 
L 628 0 
L 628 4666 
z
" transform="scale(0.015625)"/>
      <path id="DejaVuSans-41" d="M 2188 4044 
L 1331 1722 
L 3047 1722 
L 2188 4044 
z
M 1831 4666 
L 2547 4666 
L 4325 0 
L 3669 0 
L 3244 1197 
L 1141 1197 
L 716 0 
L 50 0 
L 1831 4666 
z
" transform="scale(0.015625)"/>
      <path id="DejaVuSans-4d" d="M 628 4666 
L 1569 4666 
L 2759 1491 
L 3956 4666 
L 4897 4666 
L 4897 0 
L 4281 0 
L 4281 4097 
L 3078 897 
L 2444 897 
L 1241 4097 
L 1241 0 
L 628 0 
L 628 4666 
z
" transform="scale(0.015625)"/>
      <path id="DejaVuSans-c9" d="M 628 4666 
L 3578 4666 
L 3578 4134 
L 1259 4134 
L 1259 2753 
L 3481 2753 
L 3481 2222 
L 1259 2222 
L 1259 531 
L 3634 531 
L 3634 0 
L 628 0 
L 628 4666 
z
M 2268 5921 
L 2846 5921 
L 2134 5096 
L 1655 5096 
L 2268 5921 
z
" transform="scale(0.015625)"/>
     </defs>
     <use xlink:href="#DejaVuSans-43"/>
     <use xlink:href="#DejaVuSans-4c" x="69.824219"/>
     <use xlink:href="#DejaVuSans-cd" x="125.537109"/>
     <use xlink:href="#DejaVuSans-4e" x="155.029297"/>
     <use xlink:href="#DejaVuSans-49" x="229.833984"/>
     <use xlink:href="#DejaVuSans-43" x="259.326172"/>
     <use xlink:href="#DejaVuSans-41" x="329.150391"/>
     <use xlink:href="#DejaVuSans-20" x="397.558594"/>
     <use xlink:href="#DejaVuSans-4d" x="429.345703"/>
     <use xlink:href="#DejaVuSans-c9" x="515.625"/>
     <use xlink:href="#DejaVuSans-44" x="578.808594"/>
     <use xlink:href="#DejaVuSans-49" x="655.810547"/>
     <use xlink:href="#DejaVuSans-43" x="685.302734"/>
     <use xlink:href="#DejaVuSans-41" x="755.126953"/>
    </g>
   </g>
   <g id="text_20">
    <!-- PEDIATRIA -->
    <g transform="translate(405.172106 314.262441) scale(0.1 -0.1)">
     <defs>
      <path id="DejaVuSans-50" d="M 1259 4147 
L 1259 2394 
L 2053 2394 
Q 2494 2394 2734 2622 
Q 2975 2850 2975 3272 
Q 2975 3691 2734 3919 
Q 2494 4147 2053 4147 
L 1259 4147 
z
M 628 4666 
L 2053 4666 
Q 2838 4666 3239 4311 
Q 3641 3956 3641 3272 
Q 3641 2581 3239 2228 
Q 2838 1875 2053 1875 
L 1259 1875 
L 1259 0 
L 628 0 
L 628 4666 
z
" transform="scale(0.015625)"/>
      <path id="DejaVuSans-45" d="M 628 4666 
L 3578 4666 
L 3578 4134 
L 1259 4134 
L 1259 2753 
L 3481 2753 
L 3481 2222 
L 1259 2222 
L 1259 531 
L 3634 531 
L 3634 0 
L 628 0 
L 628 4666 
z
" transform="scale(0.015625)"/>
      <path id="DejaVuSans-54" d="M -19 4666 
L 3928 4666 
L 3928 4134 
L 2272 4134 
L 2272 0 
L 1638 0 
L 1638 4134 
L -19 4134 
L -19 4666 
z
" transform="scale(0.015625)"/>
      <path id="DejaVuSans-52" d="M 2841 2188 
Q 3044 2119 3236 1894 
Q 3428 1669 3622 1275 
L 4263 0 
L 3584 0 
L 2988 1197 
Q 2756 1666 2539 1819 
Q 2322 1972 1947 1972 
L 1259 1972 
L 1259 0 
L 628 0 
L 628 4666 
L 2053 4666 
Q 2853 4666 3247 4331 
Q 3641 3997 3641 3322 
Q 3641 2881 3436 2590 
Q 3231 2300 2841 2188 
z
M 1259 4147 
L 1259 2491 
L 2053 2491 
Q 2509 2491 2742 2702 
Q 2975 2913 2975 3322 
Q 2975 3731 2742 3939 
Q 2509 4147 2053 4147 
L 1259 4147 
z
" transform="scale(0.015625)"/>
     </defs>
     <use xlink:href="#DejaVuSans-50"/>
     <use xlink:href="#DejaVuSans-45" x="60.302734"/>
     <use xlink:href="#DejaVuSans-44" x="123.486328"/>
     <use xlink:href="#DejaVuSans-49" x="200.488281"/>
     <use xlink:href="#DejaVuSans-41" x="229.980469"/>
     <use xlink:href="#DejaVuSans-54" x="290.638672"/>
     <use xlink:href="#DejaVuSans-52" x="351.722656"/>
     <use xlink:href="#DejaVuSans-49" x="421.205078"/>
     <use xlink:href="#DejaVuSans-41" x="450.697266"/>
    </g>
   </g>
   <g id="text_21">
    <!-- CIRURGIA -->
    <g transform="translate(411.513749 305.892239) scale(0.1 -0.1)">
     <defs>
      <path id="DejaVuSans-55" d="M 556 4666 
L 1191 4666 
L 1191 1831 
Q 1191 1081 1462 751 
Q 1734 422 2344 422 
Q 2950 422 3222 751 
Q 3494 1081 3494 1831 
L 3494 4666 
L 4128 4666 
L 4128 1753 
Q 4128 841 3676 375 
Q 3225 -91 2344 -91 
Q 1459 -91 1007 375 
Q 556 841 556 1753 
L 556 4666 
z
" transform="scale(0.015625)"/>
      <path id="DejaVuSans-47" d="M 3809 666 
L 3809 1919 
L 2778 1919 
L 2778 2438 
L 4434 2438 
L 4434 434 
Q 4069 175 3628 42 
Q 3188 -91 2688 -91 
Q 1594 -91 976 548 
Q 359 1188 359 2328 
Q 359 3472 976 4111 
Q 1594 4750 2688 4750 
Q 3144 4750 3555 4637 
Q 3966 4525 4313 4306 
L 4313 3634 
Q 3963 3931 3569 4081 
Q 3175 4231 2741 4231 
Q 1884 4231 1454 3753 
Q 1025 3275 1025 2328 
Q 1025 1384 1454 906 
Q 1884 428 2741 428 
Q 3075 428 3337 486 
Q 3600 544 3809 666 
z
" transform="scale(0.015625)"/>
     </defs>
     <use xlink:href="#DejaVuSans-43"/>
     <use xlink:href="#DejaVuSans-49" x="69.824219"/>
     <use xlink:href="#DejaVuSans-52" x="99.316406"/>
     <use xlink:href="#DejaVuSans-55" x="168.798828"/>
     <use xlink:href="#DejaVuSans-52" x="241.992188"/>
     <use xlink:href="#DejaVuSans-47" x="311.474609"/>
     <use xlink:href="#DejaVuSans-49" x="388.964844"/>
     <use xlink:href="#DejaVuSans-41" x="418.457031"/>
    </g>
   </g>
   <g id="text_22">
    <!-- GINECO/ -->
    <g transform="translate(404.885653 448.89991) scale(0.1 -0.1)">
     <defs>
      <path id="DejaVuSans-4f" d="M 2522 4238 
Q 1834 4238 1429 3725 
Q 1025 3213 1025 2328 
Q 1025 1447 1429 934 
Q 1834 422 2522 422 
Q 3209 422 3611 934 
Q 4013 1447 4013 2328 
Q 4013 3213 3611 3725 
Q 3209 4238 2522 4238 
z
M 2522 4750 
Q 3503 4750 4090 4092 
Q 4678 3434 4678 2328 
Q 4678 1225 4090 567 
Q 3503 -91 2522 -91 
Q 1538 -91 948 565 
Q 359 1222 359 2328 
Q 359 3434 948 4092 
Q 1538 4750 2522 4750 
z
" transform="scale(0.015625)"/>
      <path id="DejaVuSans-2f" d="M 1625 4666 
L 2156 4666 
L 531 -594 
L 0 -594 
L 1625 4666 
z
" transform="scale(0.015625)"/>
     </defs>
     <use xlink:href="#DejaVuSans-47"/>
     <use xlink:href="#DejaVuSans-49" x="77.490234"/>
     <use xlink:href="#DejaVuSans-4e" x="106.982422"/>
     <use xlink:href="#DejaVuSans-45" x="181.787109"/>
     <use xlink:href="#DejaVuSans-43" x="244.970703"/>
     <use xlink:href="#DejaVuSans-4f" x="314.794922"/>
     <use xlink:href="#DejaVuSans-2f" x="393.505859"/>
    </g>
    <!-- OBS -->
    <g transform="translate(415.793466 460.097722) scale(0.1 -0.1)">
     <defs>
      <path id="DejaVuSans-42" d="M 1259 2228 
L 1259 519 
L 2272 519 
Q 2781 519 3026 730 
Q 3272 941 3272 1375 
Q 3272 1813 3026 2020 
Q 2781 2228 2272 2228 
L 1259 2228 
z
M 1259 4147 
L 1259 2741 
L 2194 2741 
Q 2656 2741 2882 2914 
Q 3109 3088 3109 3444 
Q 3109 3797 2882 3972 
Q 2656 4147 2194 4147 
L 1259 4147 
z
M 628 4666 
L 2241 4666 
Q 2963 4666 3353 4366 
Q 3744 4066 3744 3513 
Q 3744 3084 3544 2831 
Q 3344 2578 2956 2516 
Q 3422 2416 3680 2098 
Q 3938 1781 3938 1306 
Q 3938 681 3513 340 
Q 3088 0 2303 0 
L 628 0 
L 628 4666 
z
" transform="scale(0.015625)"/>
      <path id="DejaVuSans-53" d="M 3425 4513 
L 3425 3897 
Q 3066 4069 2747 4153 
Q 2428 4238 2131 4238 
Q 1616 4238 1336 4038 
Q 1056 3838 1056 3469 
Q 1056 3159 1242 3001 
Q 1428 2844 1947 2747 
L 2328 2669 
Q 3034 2534 3370 2195 
Q 3706 1856 3706 1288 
Q 3706 609 3251 259 
Q 2797 -91 1919 -91 
Q 1588 -91 1214 -16 
Q 841 59 441 206 
L 441 856 
Q 825 641 1194 531 
Q 1563 422 1919 422 
Q 2459 422 2753 634 
Q 3047 847 3047 1241 
Q 3047 1584 2836 1778 
Q 2625 1972 2144 2069 
L 1759 2144 
Q 1053 2284 737 2584 
Q 422 2884 422 3419 
Q 422 4038 858 4394 
Q 1294 4750 2059 4750 
Q 2388 4750 2728 4690 
Q 3069 4631 3425 4513 
z
" transform="scale(0.015625)"/>
     </defs>
     <use xlink:href="#DejaVuSans-4f"/>
     <use xlink:href="#DejaVuSans-42" x="78.710938"/>
     <use xlink:href="#DejaVuSans-53" x="145.564453"/>
    </g>
   </g>
   <g id="text_23">
    <!-- SAÚDE COLETIVA -->
    <g transform="translate(378.309043 481.909462) scale(0.1 -0.1)">
     <defs>
      <path id="DejaVuSans-da" d="M 556 4666 
L 1191 4666 
L 1191 1831 
Q 1191 1081 1462 751 
Q 1734 422 2344 422 
Q 2950 422 3222 751 
Q 3494 1081 3494 1831 
L 3494 4666 
L 4128 4666 
L 4128 1753 
Q 4128 841 3676 375 
Q 3225 -91 2344 -91 
Q 1459 -91 1007 375 
Q 556 841 556 1753 
L 556 4666 
z
M 2516 5921 
L 3094 5921 
L 2382 5096 
L 1903 5096 
L 2516 5921 
z
" transform="scale(0.015625)"/>
      <path id="DejaVuSans-56" d="M 1831 0 
L 50 4666 
L 709 4666 
L 2188 738 
L 3669 4666 
L 4325 4666 
L 2547 0 
L 1831 0 
z
" transform="scale(0.015625)"/>
     </defs>
     <use xlink:href="#DejaVuSans-53"/>
     <use xlink:href="#DejaVuSans-41" x="65.351562"/>
     <use xlink:href="#DejaVuSans-da" x="133.759766"/>
     <use xlink:href="#DejaVuSans-44" x="206.953125"/>
     <use xlink:href="#DejaVuSans-45" x="283.955078"/>
     <use xlink:href="#DejaVuSans-20" x="347.138672"/>
     <use xlink:href="#DejaVuSans-43" x="378.925781"/>
     <use xlink:href="#DejaVuSans-4f" x="448.75"/>
     <use xlink:href="#DejaVuSans-4c" x="527.460938"/>
     <use xlink:href="#DejaVuSans-45" x="583.173828"/>
     <use xlink:href="#DejaVuSans-54" x="646.357422"/>
     <use xlink:href="#DejaVuSans-49" x="707.441406"/>
     <use xlink:href="#DejaVuSans-56" x="736.933594"/>
     <use xlink:href="#DejaVuSans-41" x="798.966797"/>
    </g>
   </g>
   <g id="text_24">
    <!-- Elipses: 95% de confiança -->
    <g transform="translate(57.24375 504.07415) scale(0.09 -0.09)">
     <defs>
      <path id="DejaVuSans-6c" d="M 603 4863 
L 1178 4863 
L 1178 0 
L 603 0 
L 603 4863 
z
" transform="scale(0.015625)"/>
      <path id="DejaVuSans-70" d="M 1159 525 
L 1159 -1331 
L 581 -1331 
L 581 3500 
L 1159 3500 
L 1159 2969 
Q 1341 3281 1617 3432 
Q 1894 3584 2278 3584 
Q 2916 3584 3314 3078 
Q 3713 2572 3713 1747 
Q 3713 922 3314 415 
Q 2916 -91 2278 -91 
Q 1894 -91 1617 61 
Q 1341 213 1159 525 
z
M 3116 1747 
Q 3116 2381 2855 2742 
Q 2594 3103 2138 3103 
Q 1681 3103 1420 2742 
Q 1159 2381 1159 1747 
Q 1159 1113 1420 752 
Q 1681 391 2138 391 
Q 2594 391 2855 752 
Q 3116 1113 3116 1747 
z
" transform="scale(0.015625)"/>
      <path id="DejaVuSans-73" d="M 2834 3397 
L 2834 2853 
Q 2591 2978 2328 3040 
Q 2066 3103 1784 3103 
Q 1356 3103 1142 2972 
Q 928 2841 928 2578 
Q 928 2378 1081 2264 
Q 1234 2150 1697 2047 
L 1894 2003 
Q 2506 1872 2764 1633 
Q 3022 1394 3022 966 
Q 3022 478 2636 193 
Q 2250 -91 1575 -91 
Q 1294 -91 989 -36 
Q 684 19 347 128 
L 347 722 
Q 666 556 975 473 
Q 1284 391 1588 391 
Q 1994 391 2212 530 
Q 2431 669 2431 922 
Q 2431 1156 2273 1281 
Q 2116 1406 1581 1522 
L 1381 1569 
Q 847 1681 609 1914 
Q 372 2147 372 2553 
Q 372 3047 722 3315 
Q 1072 3584 1716 3584 
Q 2034 3584 2315 3537 
Q 2597 3491 2834 3397 
z
" transform="scale(0.015625)"/>
      <path id="DejaVuSans-65" d="M 3597 1894 
L 3597 1613 
L 953 1613 
Q 991 1019 1311 708 
Q 1631 397 2203 397 
Q 2534 397 2845 478 
Q 3156 559 3463 722 
L 3463 178 
Q 3153 47 2828 -22 
Q 2503 -91 2169 -91 
Q 1331 -91 842 396 
Q 353 884 353 1716 
Q 353 2575 817 3079 
Q 1281 3584 2069 3584 
Q 2775 3584 3186 3129 
Q 3597 2675 3597 1894 
z
M 3022 2063 
Q 3016 2534 2758 2815 
Q 2500 3097 2075 3097 
Q 1594 3097 1305 2825 
Q 1016 2553 972 2059 
L 3022 2063 
z
" transform="scale(0.015625)"/>
      <path id="DejaVuSans-3a" d="M 750 794 
L 1409 794 
L 1409 0 
L 750 0 
L 750 794 
z
M 750 3309 
L 1409 3309 
L 1409 2516 
L 750 2516 
L 750 3309 
z
" transform="scale(0.015625)"/>
      <path id="DejaVuSans-64" d="M 2906 2969 
L 2906 4863 
L 3481 4863 
L 3481 0 
L 2906 0 
L 2906 525 
Q 2725 213 2448 61 
Q 2172 -91 1784 -91 
Q 1150 -91 751 415 
Q 353 922 353 1747 
Q 353 2572 751 3078 
Q 1150 3584 1784 3584 
Q 2172 3584 2448 3432 
Q 2725 3281 2906 2969 
z
M 947 1747 
Q 947 1113 1208 752 
Q 1469 391 1925 391 
Q 2381 391 2643 752 
Q 2906 1113 2906 1747 
Q 2906 2381 2643 2742 
Q 2381 3103 1925 3103 
Q 1469 3103 1208 2742 
Q 947 2381 947 1747 
z
" transform="scale(0.015625)"/>
      <path id="DejaVuSans-63" d="M 3122 3366 
L 3122 2828 
Q 2878 2963 2633 3030 
Q 2388 3097 2138 3097 
Q 1578 3097 1268 2742 
Q 959 2388 959 1747 
Q 959 1106 1268 751 
Q 1578 397 2138 397 
Q 2388 397 2633 464 
Q 2878 531 3122 666 
L 3122 134 
Q 2881 22 2623 -34 
Q 2366 -91 2075 -91 
Q 1284 -91 818 406 
Q 353 903 353 1747 
Q 353 2603 823 3093 
Q 1294 3584 2113 3584 
Q 2378 3584 2631 3529 
Q 2884 3475 3122 3366 
z
" transform="scale(0.015625)"/>
      <path id="DejaVuSans-6f" d="M 1959 3097 
Q 1497 3097 1228 2736 
Q 959 2375 959 1747 
Q 959 1119 1226 758 
Q 1494 397 1959 397 
Q 2419 397 2687 759 
Q 2956 1122 2956 1747 
Q 2956 2369 2687 2733 
Q 2419 3097 1959 3097 
z
M 1959 3584 
Q 2709 3584 3137 3096 
Q 3566 2609 3566 1747 
Q 3566 888 3137 398 
Q 2709 -91 1959 -91 
Q 1206 -91 779 398 
Q 353 888 353 1747 
Q 353 2609 779 3096 
Q 1206 3584 1959 3584 
z
" transform="scale(0.015625)"/>
      <path id="DejaVuSans-6e" d="M 3513 2113 
L 3513 0 
L 2938 0 
L 2938 2094 
Q 2938 2591 2744 2837 
Q 2550 3084 2163 3084 
Q 1697 3084 1428 2787 
Q 1159 2491 1159 1978 
L 1159 0 
L 581 0 
L 581 3500 
L 1159 3500 
L 1159 2956 
Q 1366 3272 1645 3428 
Q 1925 3584 2291 3584 
Q 2894 3584 3203 3211 
Q 3513 2838 3513 2113 
z
" transform="scale(0.015625)"/>
      <path id="DejaVuSans-66" d="M 2375 4863 
L 2375 4384 
L 1825 4384 
Q 1516 4384 1395 4259 
Q 1275 4134 1275 3809 
L 1275 3500 
L 2222 3500 
L 2222 3053 
L 1275 3053 
L 1275 0 
L 697 0 
L 697 3053 
L 147 3053 
L 147 3500 
L 697 3500 
L 697 3744 
Q 697 4328 969 4595 
Q 1241 4863 1831 4863 
L 2375 4863 
z
" transform="scale(0.015625)"/>
      <path id="DejaVuSans-61" d="M 2194 1759 
Q 1497 1759 1228 1600 
Q 959 1441 959 1056 
Q 959 750 1161 570 
Q 1363 391 1709 391 
Q 2188 391 2477 730 
Q 2766 1069 2766 1631 
L 2766 1759 
L 2194 1759 
z
M 3341 1997 
L 3341 0 
L 2766 0 
L 2766 531 
Q 2569 213 2275 61 
Q 1981 -91 1556 -91 
Q 1019 -91 701 211 
Q 384 513 384 1019 
Q 384 1609 779 1909 
Q 1175 2209 1959 2209 
L 2766 2209 
L 2766 2266 
Q 2766 2663 2505 2880 
Q 2244 3097 1772 3097 
Q 1472 3097 1187 3025 
Q 903 2953 641 2809 
L 641 3341 
Q 956 3463 1253 3523 
Q 1550 3584 1831 3584 
Q 2591 3584 2966 3190 
Q 3341 2797 3341 1997 
z
" transform="scale(0.015625)"/>
      <path id="DejaVuSans-e7" d="M 3122 3366 
L 3122 2828 
Q 2878 2963 2633 3030 
Q 2388 3097 2138 3097 
Q 1578 3097 1268 2742 
Q 959 2388 959 1747 
Q 959 1106 1268 751 
Q 1578 397 2138 397 
Q 2388 397 2633 464 
Q 2878 531 3122 666 
L 3122 134 
Q 2881 22 2623 -34 
Q 2366 -91 2075 -91 
Q 1284 -91 818 406 
Q 353 903 353 1747 
Q 353 2603 823 3093 
Q 1294 3584 2113 3584 
Q 2378 3584 2631 3529 
Q 2884 3475 3122 3366 
z
M 2311 0 
Q 2482 -194 2566 -358 
Q 2651 -522 2651 -672 
Q 2651 -950 2463 -1092 
Q 2276 -1234 1907 -1234 
Q 1764 -1234 1628 -1215 
Q 1492 -1197 1357 -1159 
L 1357 -750 
Q 1464 -803 1579 -826 
Q 1695 -850 1842 -850 
Q 2026 -850 2120 -775 
Q 2214 -700 2214 -556 
Q 2214 -463 2146 -327 
Q 2079 -191 1939 0 
L 2311 0 
z
" transform="scale(0.015625)"/>
     </defs>
     <use xlink:href="#DejaVuSans-45"/>
     <use xlink:href="#DejaVuSans-6c" x="63.183594"/>
     <use xlink:href="#DejaVuSans-69" x="90.966797"/>
     <use xlink:href="#DejaVuSans-70" x="118.75"/>
     <use xlink:href="#DejaVuSans-73" x="182.226562"/>
     <use xlink:href="#DejaVuSans-65" x="234.326172"/>
     <use xlink:href="#DejaVuSans-73" x="295.849609"/>
     <use xlink:href="#DejaVuSans-3a" x="347.949219"/>
     <use xlink:href="#DejaVuSans-20" x="381.640625"/>
     <use xlink:href="#DejaVuSans-39" x="413.427734"/>
     <use xlink:href="#DejaVuSans-35" x="477.050781"/>
     <use xlink:href="#DejaVuSans-25" x="540.673828"/>
     <use xlink:href="#DejaVuSans-20" x="635.693359"/>
     <use xlink:href="#DejaVuSans-64" x="667.480469"/>
     <use xlink:href="#DejaVuSans-65" x="730.957031"/>
     <use xlink:href="#DejaVuSans-20" x="792.480469"/>
     <use xlink:href="#DejaVuSans-63" x="824.267578"/>
     <use xlink:href="#DejaVuSans-6f" x="879.248047"/>
     <use xlink:href="#DejaVuSans-6e" x="940.429688"/>
     <use xlink:href="#DejaVuSans-66" x="1003.808594"/>
     <use xlink:href="#DejaVuSans-69" x="1039.013672"/>
     <use xlink:href="#DejaVuSans-61" x="1066.796875"/>
     <use xlink:href="#DejaVuSans-6e" x="1128.076172"/>
     <use xlink:href="#DejaVuSans-e7" x="1191.455078"/>
     <use xlink:href="#DejaVuSans-61" x="1246.435547"/>
    </g>
    <!-- Método: PCA -->
    <g transform="translate(57.24375 514.152181) scale(0.09 -0.09)">
     <defs>
      <path id="DejaVuSans-e9" d="M 3597 1894 
L 3597 1613 
L 953 1613 
Q 991 1019 1311 708 
Q 1631 397 2203 397 
Q 2534 397 2845 478 
Q 3156 559 3463 722 
L 3463 178 
Q 3153 47 2828 -22 
Q 2503 -91 2169 -91 
Q 1331 -91 842 396 
Q 353 884 353 1716 
Q 353 2575 817 3079 
Q 1281 3584 2069 3584 
Q 2775 3584 3186 3129 
Q 3597 2675 3597 1894 
z
M 3022 2063 
Q 3016 2534 2758 2815 
Q 2500 3097 2075 3097 
Q 1594 3097 1305 2825 
Q 1016 2553 972 2059 
L 3022 2063 
z
M 2466 5119 
L 3088 5119 
L 2070 3944 
L 1591 3944 
L 2466 5119 
z
" transform="scale(0.015625)"/>
      <path id="DejaVuSans-74" d="M 1172 4494 
L 1172 3500 
L 2356 3500 
L 2356 3053 
L 1172 3053 
L 1172 1153 
Q 1172 725 1289 603 
Q 1406 481 1766 481 
L 2356 481 
L 2356 0 
L 1766 0 
Q 1100 0 847 248 
Q 594 497 594 1153 
L 594 3053 
L 172 3053 
L 172 3500 
L 594 3500 
L 594 4494 
L 1172 4494 
z
" transform="scale(0.015625)"/>
     </defs>
     <use xlink:href="#DejaVuSans-4d"/>
     <use xlink:href="#DejaVuSans-e9" x="86.279297"/>
     <use xlink:href="#DejaVuSans-74" x="147.802734"/>
     <use xlink:href="#DejaVuSans-6f" x="187.011719"/>
     <use xlink:href="#DejaVuSans-64" x="248.193359"/>
     <use xlink:href="#DejaVuSans-6f" x="311.669922"/>
     <use xlink:href="#DejaVuSans-3a" x="372.851562"/>
     <use xlink:href="#DejaVuSans-20" x="406.542969"/>
     <use xlink:href="#DejaVuSans-50" x="438.330078"/>
     <use xlink:href="#DejaVuSans-43" x="498.632812"/>
     <use xlink:href="#DejaVuSans-41" x="568.457031"/>
    </g>
   </g>
   <g id="text_25">
    <!-- PCA - Biplot -->
    <g transform="translate(291.62625 19.3575) scale(0.16 -0.16)">
     <defs>
      <path id="DejaVuSans-2d" d="M 313 2009 
L 1997 2009 
L 1997 1497 
L 313 1497 
L 313 2009 
z
" transform="scale(0.015625)"/>
     </defs>
     <use xlink:href="#DejaVuSans-50"/>
     <use xlink:href="#DejaVuSans-43" x="60.302734"/>
     <use xlink:href="#DejaVuSans-41" x="130.126953"/>
     <use xlink:href="#DejaVuSans-20" x="198.535156"/>
     <use xlink:href="#DejaVuSans-2d" x="230.322266"/>
     <use xlink:href="#DejaVuSans-20" x="266.40625"/>
     <use xlink:href="#DejaVuSans-42" x="298.193359"/>
     <use xlink:href="#DejaVuSans-69" x="366.796875"/>
     <use xlink:href="#DejaVuSans-70" x="394.580078"/>
     <use xlink:href="#DejaVuSans-6c" x="458.056641"/>
     <use xlink:href="#DejaVuSans-6f" x="485.839844"/>
     <use xlink:href="#DejaVuSans-74" x="547.021484"/>
    </g>
   </g>
   <g id="legend_1">
    <g id="text_26">
     <!-- Legenda: -->
     <g transform="translate(571.665937 42.715781) scale(0.11 -0.11)">
      <defs>
       <path id="DejaVuSans-67" d="M 2906 1791 
Q 2906 2416 2648 2759 
Q 2391 3103 1925 3103 
Q 1463 3103 1205 2759 
Q 947 2416 947 1791 
Q 947 1169 1205 825 
Q 1463 481 1925 481 
Q 2391 481 2648 825 
Q 2906 1169 2906 1791 
z
M 3481 434 
Q 3481 -459 3084 -895 
Q 2688 -1331 1869 -1331 
Q 1566 -1331 1297 -1286 
Q 1028 -1241 775 -1147 
L 775 -588 
Q 1028 -725 1275 -790 
Q 1522 -856 1778 -856 
Q 2344 -856 2625 -561 
Q 2906 -266 2906 331 
L 2906 616 
Q 2728 306 2450 153 
Q 2172 0 1784 0 
Q 1141 0 747 490 
Q 353 981 353 1791 
Q 353 2603 747 3093 
Q 1141 3584 1784 3584 
Q 2172 3584 2450 3431 
Q 2728 3278 2906 2969 
L 2906 3500 
L 3481 3500 
L 3481 434 
z
" transform="scale(0.015625)"/>
      </defs>
      <use xlink:href="#DejaVuSans-4c"/>
      <use xlink:href="#DejaVuSans-65" x="53.962891"/>
      <use xlink:href="#DejaVuSans-67" x="115.486328"/>
      <use xlink:href="#DejaVuSans-65" x="178.962891"/>
      <use xlink:href="#DejaVuSans-6e" x="240.486328"/>
      <use xlink:href="#DejaVuSans-64" x="303.865234"/>
      <use xlink:href="#DejaVuSans-61" x="367.341797"/>
      <use xlink:href="#DejaVuSans-3a" x="428.621094"/>
     </g>
    </g>
    <g id="PathCollection_5">
     <g>
      <use xlink:href="#m71a1e72a72" x="586.483125" y="54.976875" style="fill-opacity: 0.9; stroke: #000000; stroke-opacity: 0.9"/>
     </g>
    </g>
    <g id="text_27">
     <!-- 6A -->
     <g transform="translate(604.483125 57.601875) scale(0.1 -0.1)">
      <defs>
       <path id="DejaVuSans-36" d="M 2113 2584 
Q 1688 2584 1439 2293 
Q 1191 2003 1191 1497 
Q 1191 994 1439 701 
Q 1688 409 2113 409 
Q 2538 409 2786 701 
Q 3034 994 3034 1497 
Q 3034 2003 2786 2293 
Q 2538 2584 2113 2584 
z
M 3366 4563 
L 3366 3988 
Q 3128 4100 2886 4159 
Q 2644 4219 2406 4219 
Q 1781 4219 1451 3797 
Q 1122 3375 1075 2522 
Q 1259 2794 1537 2939 
Q 1816 3084 2150 3084 
Q 2853 3084 3261 2657 
Q 3669 2231 3669 1497 
Q 3669 778 3244 343 
Q 2819 -91 2113 -91 
Q 1303 -91 875 529 
Q 447 1150 447 2328 
Q 447 3434 972 4092 
Q 1497 4750 2381 4750 
Q 2619 4750 2861 4703 
Q 3103 4656 3366 4563 
z
" transform="scale(0.015625)"/>
      </defs>
      <use xlink:href="#DejaVuSans-36"/>
      <use xlink:href="#DejaVuSans-41" x="63.623047"/>
     </g>
    </g>
    <g id="PathCollection_6">
     <g>
      <use xlink:href="#m04afbd65b5" x="586.483125" y="69.655" style="fill: #ff0000; fill-opacity: 0.9; stroke: #ff0000; stroke-opacity: 0.9"/>
     </g>
    </g>
    <g id="text_28">
     <!-- 6B -->
     <g transform="translate(604.483125 72.28) scale(0.1 -0.1)">
      <use xlink:href="#DejaVuSans-36"/>
      <use xlink:href="#DejaVuSans-42" x="63.623047"/>
     </g>
    </g>
    <g id="PathCollection_7">
     <g>
      <use xlink:href="#meeaa382ac9" x="586.483125" y="84.333125" style="fill: #0000ff; fill-opacity: 0.9; stroke: #0000ff; stroke-opacity: 0.9"/>
     </g>
    </g>
    <g id="text_29">
     <!-- 5A -->
     <g transform="translate(604.483125 86.958125) scale(0.1 -0.1)">
      <use xlink:href="#DejaVuSans-35"/>
      <use xlink:href="#DejaVuSans-41" x="63.623047"/>
     </g>
    </g>
    <g id="PathCollection_8">
     <g>
      <use xlink:href="#m06ac771931" x="586.483125" y="99.01125" style="fill: #008000; fill-opacity: 0.9; stroke: #008000; stroke-opacity: 0.9"/>
     </g>
    </g>
    <g id="text_30">
     <!-- 5B -->
     <g transform="translate(604.483125 101.63625) scale(0.1 -0.1)">
      <use xlink:href="#DejaVuSans-35"/>
      <use xlink:href="#DejaVuSans-42" x="63.623047"/>
     </g>
    </g>
   </g>
  </g>
 </g>
 <defs>
  <clipPath id="p3db3b06e7f">
   <rect x="45.52375" y="25.3575" width="586" height="500.68"/>
  </clipPath>
 </defs>
</svg>
